sources
<glyph name="exclam" format="2">
  <advance width="366"/>
  <unicode hex="0021"/>
  <outline>
    <contour>
      <point x="76" y="160" type="qcurve" smooth="yes"/>
      <point x="102" y="174"/>
      <point x="120" y="170"/>
      <point x="150" y="143" type="qcurve" smooth="yes"/>
      <point x="180" y="115"/>
      <point x="194" y="47"/>
      <point x="158" y="0"/>
      <point x="123" y="0" type="qcurve" smooth="yes"/>
      <point x="81" y="0"/>
      <point x="30" y="63"/>
      <point x="40" y="141"/>
    </contour>
    <contour>
      <point x="187" y="1217" type="qcurve" smooth="yes"/>
      <point x="211" y="1228"/>
      <point x="236" y="1229"/>
      <point x="268" y="1221" type="qcurve" smooth="yes"/>
      <point x="310" y="1211"/>
      <point x="320" y="1197" type="qcurve" smooth="yes"/>
      <point x="341" y="1169"/>
      <point x="321" y="1044" type="qcurve" smooth="yes"/>
      <point x="307" y="955"/>
      <point x="228" y="571" type="qcurve" smooth="yes"/>
      <point x="201" y="441"/>
      <point x="188" y="358" type="qcurve" smooth="yes"/>
      <point x="178" y="291"/>
      <point x="153" y="235"/>
      <point x="133" y="235" type="qcurve" smooth="yes"/>
      <point x="114" y="235"/>
      <point x="106" y="295"/>
      <point x="115" y="372" type="qcurve" smooth="yes"/>
      <point x="126" y="455"/>
      <point x="121" y="635" type="qcurve" smooth="yes"/>
      <point x="116" y="793"/>
      <point x="133" y="1162"/>
      <point x="147" y="1184" type="qcurve" smooth="yes"/>
      <point x="162" y="1207"/>
    </contour>
  </outline>
</glyph>
<glyph name="dollar" format="2">
  <advance width="880"/>
  <unicode hex="0024"/>
  <outline>
    <contour>
      <point x="498" y="453" type="qcurve" smooth="yes"/>
      <point x="484" y="478"/>
      <point x="471" y="464" type="qcurve" smooth="yes"/>
      <point x="458" y="451"/>
      <point x="431" y="396" type="qcurve" smooth="yes"/>
      <point x="408" y="349"/>
      <point x="330" y="96"/>
      <point x="335" y="83" type="qcurve" smooth="yes"/>
      <point x="346" y="53"/>
      <point x="390" y="84" type="qcurve" smooth="yes"/>
      <point x="433" y="113"/>
      <point x="465" y="172" type="qcurve" smooth="yes"/>
      <point x="492" y="221"/>
      <point x="515" y="421"/>
    </contour>
    <contour>
      <point x="568" y="994" type="qcurve" smooth="yes"/>
      <point x="568" y="1019"/>
      <point x="536" y="999" type="qcurve" smooth="yes"/>
      <point x="496" y="974"/>
      <point x="469" y="925" type="qcurve" smooth="yes"/>
      <point x="469" y="923"/>
      <point x="468" y="922" type="qcurve" smooth="yes"/>
      <point x="441" y="868"/>
      <point x="448" y="811" type="qcurve" smooth="yes"/>
      <point x="452" y="778"/>
      <point x="468" y="780" type="qcurve" smooth="yes"/>
      <point x="474" y="780"/>
      <point x="480" y="786" type="qcurve" smooth="yes"/>
      <point x="493" y="797"/>
      <point x="568" y="976"/>
    </contour>
    <contour>
      <point x="594" y="1128" type="qcurve" smooth="yes"/>
      <point x="623" y="1145"/>
      <point x="632" y="1129" type="qcurve" smooth="yes"/>
      <point x="638" y="1121"/>
      <point x="666" y="1116" type="qcurve" smooth="yes"/>
      <point x="690" y="1112"/>
      <point x="809" y="1003"/>
      <point x="827" y="969" type="qcurve" smooth="yes"/>
      <point x="854" y="917"/>
      <point x="843" y="854" type="qcurve" smooth="yes"/>
      <point x="835" y="809"/>
      <point x="814" y="811" type="qcurve" smooth="yes"/>
      <point x="806" y="812"/>
      <point x="797" y="822" type="qcurve" smooth="yes"/>
      <point x="789" y="831"/>
      <point x="761" y="923"/>
      <point x="717" y="992"/>
      <point x="684" y="988" type="qcurve" smooth="yes"/>
      <point x="664" y="986"/>
      <point x="642" y="952"/>
      <point x="616" y="884" type="qcurve" smooth="yes"/>
      <point x="604" y="850"/>
      <point x="568" y="760" type="qcurve" smooth="yes"/>
      <point x="544" y="700"/>
      <point x="555" y="653"/>
      <point x="607" y="597" type="qcurve" smooth="yes"/>
      <point x="805" y="385"/>
      <point x="639" y="152" type="qcurve" smooth="yes"/>
      <point x="594" y="89"/>
      <point x="467" y="9"/>
      <point x="366" y="-15"/>
      <point x="286" y="-32"/>
      <point x="281" y="-39" type="qcurve" smooth="yes"/>
      <point x="218" y="-190"/>
      <point x="193" y="-203" type="qcurve" smooth="yes"/>
      <point x="181" y="-209"/>
      <point x="170" y="-195" type="qcurve" smooth="yes"/>
      <point x="152" y="-170"/>
      <point x="163" y="-131"/>
      <point x="183" y="-86"/>
      <point x="200" y="-48"/>
      <point x="176" y="-2"/>
      <point x="139" y="20" type="qcurve" smooth="yes"/>
      <point x="35" y="80"/>
      <point x="35" y="214" type="qcurve" smooth="yes"/>
      <point x="35" y="271"/>
      <point x="79" y="379"/>
      <point x="147" y="435"/>
      <point x="179" y="423" type="qcurve" smooth="yes"/>
      <point x="192" y="418"/>
      <point x="193" y="372"/>
      <point x="180" y="358" type="qcurve" smooth="yes"/>
      <point x="126" y="297"/>
      <point x="120" y="154"/>
      <point x="170" y="111" type="qcurve" smooth="yes"/>
      <point x="189" y="95"/>
      <point x="216" y="93"/>
      <point x="248" y="133"/>
      <point x="281" y="211"/>
      <point x="307" y="283" type="qcurve" smooth="yes"/>
      <point x="347" y="397"/>
      <point x="372" y="458" type="qcurve" smooth="yes"/>
      <point x="395" y="513"/>
      <point x="403" y="560"/>
      <point x="384" y="597"/>
      <point x="349" y="626" type="qcurve" smooth="yes"/>
      <point x="260" y="704"/>
      <point x="248" y="899"/>
      <point x="399" y="1067"/>
      <point x="534" y="1106" type="qcurve" smooth="yes"/>
      <point x="583" y="1122"/>
    </contour>
  </outline>
</glyph>
<glyph name="percent" format="2">
  <advance width="811"/>
  <unicode hex="0025"/>
  <outline>
    <contour>
      <point x="652" y="395" type="qcurve" smooth="yes"/>
      <point x="621" y="429"/>
      <point x="541" y="358"/>
      <point x="514" y="272" type="qcurve" smooth="yes"/>
      <point x="446" y="53"/>
      <point x="485" y="9" type="qcurve" smooth="yes"/>
      <point x="511" y="-21"/>
      <point x="582" y="50" type="qcurve" smooth="yes"/>
      <point x="649" y="119"/>
      <point x="696" y="346"/>
    </contour>
    <contour>
      <point x="595" y="491" type="qcurve" smooth="yes"/>
      <point x="626" y="501"/>
      <point x="715" y="451"/>
      <point x="738" y="411" type="qcurve" smooth="yes"/>
      <point x="762" y="367"/>
      <point x="727" y="127"/>
      <point x="687" y="71" type="qcurve" smooth="yes"/>
      <point x="651" y="20"/>
      <point x="564" y="-52"/>
      <point x="531" y="-56" type="qcurve" smooth="yes"/>
      <point x="462" y="-67"/>
      <point x="364" y="-15"/>
      <point x="324" y="88"/>
      <point x="344" y="237"/>
      <point x="385" y="319" type="qcurve" smooth="yes"/>
      <point x="419" y="386"/>
      <point x="517" y="466"/>
    </contour>
    <contour>
      <point x="706" y="1312" type="qcurve" smooth="yes"/>
      <point x="718" y="1329"/>
      <point x="769" y="1334"/>
      <point x="775" y="1319" type="qcurve" smooth="yes"/>
      <point x="779" y="1308"/>
      <point x="569" y="886"/>
      <point x="518" y="802" type="qcurve" smooth="yes"/>
      <point x="479" y="741"/>
      <point x="269" y="328"/>
      <point x="91" y="-21"/>
      <point x="78" y="-31" type="qcurve" smooth="yes"/>
      <point x="61" y="-45"/>
      <point x="37" y="-33"/>
      <point x="35" y="-10" type="qcurve" smooth="yes"/>
      <point x="33" y="9"/>
      <point x="287" y="536"/>
      <point x="323" y="587" type="qcurve" smooth="yes"/>
      <point x="338" y="606"/>
      <point x="487" y="906"/>
      <point x="498" y="920" type="qcurve" smooth="yes"/>
      <point x="512" y="941"/>
      <point x="698" y="1301"/>
    </contour>
    <contour>
      <point x="371" y="1244" type="qcurve" smooth="yes"/>
      <point x="328" y="1292"/>
      <point x="287" y="1225" type="qcurve" smooth="yes"/>
      <point x="260" y="1181"/>
      <point x="226" y="1078" type="qcurve" smooth="yes"/>
      <point x="175" y="924"/>
      <point x="203" y="864" type="qcurve" smooth="yes"/>
      <point x="223" y="819"/>
      <point x="278" y="858" type="qcurve" smooth="yes"/>
      <point x="312" y="882"/>
      <point x="368" y="992"/>
      <point x="397" y="1110"/>
      <point x="393" y="1220"/>
    </contour>
    <contour>
      <point x="268" y="1319" type="qcurve" smooth="yes"/>
      <point x="342" y="1344"/>
      <point x="427" y="1314"/>
      <point x="459" y="1252" type="qcurve" smooth="yes"/>
      <point x="479" y="1213"/>
      <point x="451" y="972"/>
      <point x="419" y="911" type="qcurve" smooth="yes"/>
      <point x="382" y="839"/>
      <point x="213" y="764"/>
      <point x="152" y="792" type="qcurve" smooth="yes"/>
      <point x="63" y="833"/>
      <point x="42" y="1050"/>
      <point x="115" y="1174" type="qcurve" smooth="yes"/>
      <point x="160" y="1250"/>
      <point x="212" y="1300"/>
    </contour>
  </outline>
</glyph>
<glyph name="quotesingle" format="2">
  <advance width="288"/>
  <unicode hex="0027"/>
  <outline>
    <contour>
      <point x="196" y="1230" type="qcurve"/>
      <point x="223" y="1230"/>
      <point x="231" y="1227" type="qcurve" smooth="yes"/>
      <point x="281" y="1208"/>
      <point x="214" y="1108" type="qcurve" smooth="yes"/>
      <point x="203" y="1091"/>
      <point x="61" y="948"/>
      <point x="53" y="946" type="qcurve" smooth="yes"/>
      <point x="40" y="942"/>
      <point x="32" y="964"/>
      <point x="43" y="977" type="qcurve" smooth="yes"/>
      <point x="108" y="1053"/>
      <point x="141" y="1157" type="qcurve" smooth="yes"/>
      <point x="154" y="1200"/>
      <point x="172" y="1222"/>
    </contour>
  </outline>
</glyph>
<glyph name="parenleft" format="2">
  <advance width="776"/>
  <unicode hex="0028"/>
  <outline>
    <contour>
      <point x="514" y="1191" type="qcurve" smooth="yes"/>
      <point x="553" y="1222"/>
      <point x="705" y="1276"/>
      <point x="728" y="1260" type="qcurve" smooth="yes"/>
      <point x="748" y="1247"/>
      <point x="724" y="1208"/>
      <point x="689" y="1196" type="qcurve" smooth="yes"/>
      <point x="557" y="1154"/>
      <point x="358" y="859"/>
      <point x="272" y="581" type="qcurve" smooth="yes"/>
      <point x="191" y="315"/>
      <point x="218" y="-114"/>
      <point x="322" y="-224" type="qcurve" smooth="yes"/>
      <point x="369" y="-274"/>
      <point x="357" y="-295" type="qcurve" smooth="yes"/>
      <point x="345" y="-316"/>
      <point x="293" y="-283" type="qcurve" smooth="yes"/>
      <point x="290" y="-281"/>
      <point x="287" y="-279" type="qcurve" smooth="yes"/>
      <point x="135" y="-181"/>
      <point x="10" y="217"/>
      <point x="51" y="473" type="qcurve" smooth="yes"/>
      <point x="73" y="608"/>
      <point x="198" y="891"/>
      <point x="366" y="1107"/>
      <point x="446" y="1148" type="qcurve" smooth="yes"/>
      <point x="485" y="1169"/>
    </contour>
  </outline>
</glyph>
<glyph name="parenright" format="2">
  <advance width="828"/>
  <unicode hex="0029"/>
  <outline>
    <contour>
      <point x="494" y="1277" type="qcurve" smooth="yes"/>
      <point x="504" y="1284"/>
      <point x="520" y="1282"/>
      <point x="537" y="1271" type="qcurve" smooth="yes"/>
      <point x="566" y="1254"/>
      <point x="606" y="1231" type="qcurve" smooth="yes"/>
      <point x="757" y="1144"/>
      <point x="789" y="822" type="qcurve" smooth="yes"/>
      <point x="806" y="649"/>
      <point x="712" y="279"/>
      <point x="530" y="-25"/>
      <point x="268" y="-250"/>
      <point x="126" y="-287" type="qcurve" smooth="yes"/>
      <point x="67" y="-302"/>
      <point x="42" y="-302"/>
      <point x="37" y="-286" type="qcurve" smooth="yes"/>
      <point x="31" y="-266"/>
      <point x="58" y="-241"/>
      <point x="98" y="-230" type="qcurve" smooth="yes"/>
      <point x="228" y="-192"/>
      <point x="343" y="-17" type="qcurve" smooth="yes"/>
      <point x="368" y="23"/>
      <point x="385" y="45" type="qcurve" smooth="yes"/>
      <point x="434" y="117"/>
      <point x="545" y="404"/>
      <point x="586" y="565" type="qcurve" smooth="yes"/>
      <point x="642" y="785"/>
      <point x="608" y="1136"/>
      <point x="524" y="1202" type="qcurve" smooth="yes"/>
      <point x="460" y="1252"/>
    </contour>
  </outline>
</glyph>
<glyph name="asterisk" format="2">
  <advance width="540"/>
  <unicode hex="002A"/>
  <outline>
    <contour>
      <point x="251" y="1225" type="qcurve" smooth="yes"/>
      <point x="267" y="1231"/>
      <point x="300" y="1213"/>
      <point x="303" y="1197" type="qcurve" smooth="yes"/>
      <point x="305" y="1189"/>
      <point x="300" y="1103"/>
      <point x="297" y="1085" type="qcurve" smooth="yes"/>
      <point x="291" y="1048"/>
      <point x="303" y="1042" type="qcurve" smooth="yes"/>
      <point x="307" y="1040"/>
      <point x="312" y="1045" type="qcurve" smooth="yes"/>
      <point x="337" y="1070"/>
      <point x="455" y="1154"/>
      <point x="467" y="1154" type="qcurve" smooth="yes"/>
      <point x="473" y="1154"/>
      <point x="500" y="1133"/>
      <point x="503" y="1126" type="qcurve" smooth="yes"/>
      <point x="508" y="1114"/>
      <point x="499" y="1078"/>
      <point x="488" y="1070" type="qcurve" smooth="yes"/>
      <point x="482" y="1065"/>
      <point x="401" y="1033"/>
      <point x="379" y="1027" type="qcurve" smooth="yes"/>
      <point x="332" y="1014"/>
      <point x="331" y="1007" type="qcurve" smooth="yes"/>
      <point x="330" y="1001"/>
      <point x="354" y="992" type="qcurve" smooth="yes"/>
      <point x="366" y="987"/>
      <point x="396" y="977" type="qcurve" smooth="yes"/>
      <point x="472" y="952"/>
      <point x="497" y="936"/>
      <point x="498" y="916" type="qcurve" smooth="yes"/>
      <point x="499" y="895"/>
      <point x="477" y="864"/>
      <point x="461" y="864" type="qcurve" smooth="yes"/>
      <point x="449" y="864"/>
      <point x="430" y="879" type="qcurve" smooth="yes"/>
      <point x="413" y="891"/>
      <point x="349" y="943"/>
      <point x="306" y="976"/>
      <point x="301" y="973" type="qcurve" smooth="yes"/>
      <point x="294" y="971"/>
      <point x="304" y="935" type="qcurve" smooth="yes"/>
      <point x="329" y="850"/>
      <point x="321" y="797"/>
      <point x="286" y="793" type="qcurve" smooth="yes"/>
      <point x="255" y="790"/>
      <point x="237" y="825"/>
      <point x="245" y="871" type="qcurve" smooth="yes"/>
      <point x="264" y="973"/>
      <point x="253" y="978" type="qcurve" smooth="yes"/>
      <point x="247" y="982"/>
      <point x="163" y="917"/>
      <point x="69" y="867"/>
      <point x="50" y="887" type="qcurve" smooth="yes"/>
      <point x="37" y="901"/>
      <point x="34" y="944"/>
      <point x="46" y="953" type="qcurve" smooth="yes"/>
      <point x="54" y="959"/>
      <point x="159" y="993"/>
      <point x="197" y="1002" type="qcurve" smooth="yes"/>
      <point x="217" y="1007"/>
      <point x="217" y="1013" type="qcurve" smooth="yes"/>
      <point x="217" y="1017"/>
      <point x="206" y="1019" type="qcurve" smooth="yes"/>
      <point x="171" y="1026"/>
      <point x="72" y="1064"/>
      <point x="64" y="1073" type="qcurve" smooth="yes"/>
      <point x="55" y="1084"/>
      <point x="63" y="1133"/>
      <point x="74" y="1143" type="qcurve" smooth="yes"/>
      <point x="81" y="1148"/>
      <point x="106" y="1147"/>
      <point x="110" y="1141" type="qcurve" smooth="yes"/>
      <point x="113" y="1138"/>
      <point x="173" y="1097"/>
      <point x="180" y="1089" type="qcurve" smooth="yes"/>
      <point x="184" y="1085"/>
      <point x="250" y="1026"/>
      <point x="252" y="1026" type="qcurve" smooth="yes"/>
      <point x="254" y="1027"/>
      <point x="254" y="1044"/>
      <point x="248" y="1074"/>
      <point x="244" y="1090" type="qcurve" smooth="yes"/>
      <point x="224" y="1163"/>
      <point x="227" y="1216"/>
    </contour>
  </outline>
</glyph>
<glyph name="plus" format="2">
  <advance width="767"/>
  <unicode hex="002B"/>
  <outline>
    <contour>
      <point x="499" y="633" type="qcurve" smooth="yes"/>
      <point x="508" y="643"/>
      <point x="522" y="646"/>
      <point x="532" y="640" type="qcurve" smooth="yes"/>
      <point x="550" y="630"/>
      <point x="545" y="587"/>
      <point x="519" y="505" type="qcurve" smooth="yes"/>
      <point x="465" y="334"/>
      <point x="461" y="309" type="qcurve" smooth="yes"/>
      <point x="455" y="269"/>
      <point x="479" y="261" type="qcurve" smooth="yes"/>
      <point x="493" y="257"/>
      <point x="576" y="262" type="qcurve" smooth="yes"/>
      <point x="581" y="263"/>
      <point x="585" y="263" type="qcurve" smooth="yes"/>
      <point x="675" y="267"/>
      <point x="732" y="253"/>
      <point x="732" y="197"/>
      <point x="690" y="186"/>
      <point x="580" y="184" type="qcurve" smooth="yes"/>
      <point x="472" y="182"/>
      <point x="452" y="178" type="qcurve" smooth="yes"/>
      <point x="414" y="169"/>
      <point x="394" y="129" type="qcurve" smooth="yes"/>
      <point x="381" y="104"/>
      <point x="338" y="-42" type="qcurve" smooth="yes"/>
      <point x="337" y="-45"/>
      <point x="336" y="-48" type="qcurve" smooth="yes"/>
      <point x="312" y="-130"/>
      <point x="288" y="-174"/>
      <point x="270" y="-174" type="qcurve" smooth="yes"/>
      <point x="254" y="-174"/>
      <point x="241" y="-160"/>
      <point x="243" y="-120"/>
      <point x="261" y="-57"/>
      <point x="279" y="-3" type="qcurve" smooth="yes"/>
      <point x="319" y="114"/>
      <point x="320" y="137" type="qcurve" smooth="yes"/>
      <point x="322" y="166"/>
      <point x="292" y="174" type="qcurve" smooth="yes"/>
      <point x="275" y="178"/>
      <point x="185" y="181" type="qcurve" smooth="yes"/>
      <point x="147" y="182"/>
      <point x="104" y="184"/>
      <point x="66" y="189"/>
      <point x="50" y="193"/>
      <point x="38" y="204"/>
      <point x="35" y="215"/>
      <point x="35" y="225" type="qcurve" smooth="yes"/>
      <point x="35" y="261"/>
      <point x="106" y="257" type="qcurve" smooth="yes"/>
      <point x="164" y="254"/>
      <point x="359" y="272"/>
      <point x="366" y="282" type="qcurve" smooth="yes"/>
      <point x="374" y="291"/>
      <point x="490" y="621"/>
    </contour>
  </outline>
</glyph>
<glyph name="hyphen" format="2">
  <advance width="828"/>
  <unicode hex="002D"/>
  <outline>
    <contour>
      <point x="47" y="310" type="qcurve" smooth="yes"/>
      <point x="68" y="324"/>
      <point x="783" y="321"/>
      <point x="788" y="307" type="qcurve" smooth="yes"/>
      <point x="799" y="276"/>
      <point x="781" y="259" type="qcurve" smooth="yes"/>
      <point x="773" y="251"/>
      <point x="368" y="247"/>
      <point x="59" y="252" type="qcurve" smooth="yes"/>
      <point x="40" y="252"/>
      <point x="31" y="299"/>
    </contour>
  </outline>
</glyph>
<glyph name="period" format="2">
  <advance width="236"/>
  <unicode hex="002E"/>
  <outline>
    <contour>
      <point x="107" y="50" type="qcurve" smooth="yes"/>
      <point x="145" y="59"/>
      <point x="206" y="-2"/>
      <point x="199" y="-42" type="qcurve" smooth="yes"/>
      <point x="191" y="-91"/>
      <point x="118" y="-132"/>
      <point x="45" y="-98"/>
      <point x="36" y="-50" type="qcurve" smooth="yes"/>
      <point x="30" y="-16"/>
      <point x="71" y="42"/>
    </contour>
  </outline>
</glyph>
<glyph name="slash" format="2">
  <advance width="950"/>
  <unicode hex="002F"/>
  <outline>
    <contour>
      <point x="853" y="1524" type="qcurve" smooth="yes"/>
      <point x="883" y="1556"/>
      <point x="927" y="1517"/>
      <point x="906" y="1477" type="qcurve" smooth="yes"/>
      <point x="906" y="1476"/>
      <point x="769" y="1222"/>
      <point x="630" y="967"/>
      <point x="626" y="962" type="qcurve" smooth="yes"/>
      <point x="613" y="947"/>
      <point x="164" y="111"/>
      <point x="156" y="94" type="qcurve" smooth="yes"/>
      <point x="134" y="50"/>
      <point x="104" y="-1"/>
      <point x="78" y="-26"/>
      <point x="59" y="-25"/>
      <point x="48" y="-14" type="qcurve" smooth="yes"/>
      <point x="35" y="-1"/>
      <point x="36" y="22"/>
      <point x="50" y="46" type="qcurve" smooth="yes"/>
      <point x="57" y="57"/>
      <point x="104" y="162"/>
      <point x="132" y="206" type="qcurve" smooth="yes"/>
      <point x="161" y="251"/>
      <point x="235" y="402"/>
      <point x="271" y="462" type="qcurve" smooth="yes"/>
      <point x="311" y="530"/>
      <point x="412" y="734"/>
      <point x="429" y="758" type="qcurve" smooth="yes"/>
      <point x="451" y="790"/>
      <point x="561" y="1003"/>
      <point x="573" y="1018" type="qcurve" smooth="yes"/>
      <point x="618" y="1078"/>
      <point x="714" y="1278"/>
      <point x="735" y="1314" type="qcurve" smooth="yes"/>
      <point x="760" y="1355"/>
      <point x="811" y="1453"/>
      <point x="843" y="1513"/>
    </contour>
  </outline>
</glyph>
<glyph name="zero" format="2">
  <advance width="915"/>
  <unicode hex="0030"/>
  <outline>
    <contour>
      <point x="679" y="1158" type="qcurve" smooth="yes"/>
      <point x="582" y="1199"/>
      <point x="384" y="1027"/>
      <point x="234" y="658"/>
      <point x="205" y="423" type="qcurve" smooth="yes"/>
      <point x="178" y="207"/>
      <point x="296" y="89" type="qcurve" smooth="yes"/>
      <point x="345" y="40"/>
      <point x="432" y="34"/>
      <point x="497" y="76" type="qcurve" smooth="yes"/>
      <point x="570" y="122"/>
      <point x="694" y="308"/>
      <point x="774" y="528"/>
      <point x="815" y="770"/>
      <point x="807" y="976"/>
      <point x="740" y="1132"/>
    </contour>
    <contour>
      <point x="550" y="1242" type="qcurve" smooth="yes"/>
      <point x="620" y="1258"/>
      <point x="771" y="1193"/>
      <point x="813" y="1129" type="qcurve" smooth="yes"/>
      <point x="857" y="1062"/>
      <point x="881" y="956"/>
      <point x="880" y="832" type="qcurve" smooth="yes"/>
      <point x="879" y="647"/>
      <point x="774" y="289"/>
      <point x="598" y="35"/>
      <point x="498" y="-3" type="qcurve" smooth="yes"/>
      <point x="442" y="-24"/>
      <point x="331" y="-26"/>
      <point x="233" y="8"/>
      <point x="147" y="79"/>
      <point x="82" y="178"/>
      <point x="41" y="311"/>
      <point x="30" y="462"/>
      <point x="55" y="645"/>
      <point x="87" y="741" type="qcurve" smooth="yes"/>
      <point x="160" y="962"/>
      <point x="386" y="1206"/>
    </contour>
  </outline>
</glyph>
<glyph name="two" format="2">
  <advance width="933"/>
  <unicode hex="0032"/>
  <outline>
    <contour>
      <point x="498" y="1284" type="qcurve" smooth="yes"/>
      <point x="602" y="1302"/>
      <point x="787" y="1225"/>
      <point x="898" y="1063"/>
      <point x="898" y="962" type="qcurve" smooth="yes"/>
      <point x="898" y="851"/>
      <point x="787" y="654"/>
      <point x="668" y="555" type="qcurve" smooth="yes"/>
      <point x="552" y="457"/>
      <point x="541" y="446" type="qcurve" smooth="yes"/>
      <point x="511" y="424" type="line" smooth="yes"/>
      <point x="481" y="402"/>
      <point x="415" y="353"/>
      <point x="409" y="348" type="qcurve" smooth="yes"/>
      <point x="392" y="336" type="line" smooth="yes"/>
      <point x="374" y="323"/>
      <point x="325" y="286"/>
      <point x="267" y="239"/>
      <point x="217" y="198"/>
      <point x="184" y="162"/>
      <point x="184" y="154" type="qcurve" smooth="yes"/>
      <point x="184" y="144"/>
      <point x="197" y="137"/>
      <point x="223" y="141"/>
      <point x="259" y="148"/>
      <point x="311" y="153"/>
      <point x="369" y="153"/>
      <point x="445" y="139"/>
      <point x="484" y="125" type="qcurve" smooth="yes"/>
      <point x="539" y="105"/>
      <point x="595" y="107"/>
      <point x="629" y="132" type="qcurve" smooth="yes"/>
      <point x="679" y="169"/>
      <point x="687" y="151" type="qcurve" smooth="yes"/>
      <point x="689" y="145"/>
      <point x="689" y="135" type="qcurve" smooth="yes"/>
      <point x="689" y="98"/>
      <point x="627" y="33"/>
      <point x="534" y="2"/>
      <point x="425" y="-3"/>
      <point x="379" y="20" type="qcurve" smooth="yes"/>
      <point x="331" y="43"/>
      <point x="155" y="49"/>
      <point x="117" y="30" type="qcurve" smooth="yes"/>
      <point x="36" y="-11"/>
      <point x="35" y="44" type="qcurve" smooth="yes"/>
      <point x="34" y="78"/>
      <point x="67" y="143" type="qcurve" smooth="yes"/>
      <point x="83" y="174"/>
      <point x="220" y="305"/>
      <point x="275" y="343" type="qcurve" smooth="yes"/>
      <point x="378" y="413"/>
      <point x="587" y="646"/>
      <point x="640" y="751" type="qcurve" smooth="yes"/>
      <point x="704" y="877"/>
      <point x="715" y="1091"/>
      <point x="610" y="1215"/>
      <point x="510" y="1215" type="qcurve" smooth="yes"/>
      <point x="432" y="1215"/>
      <point x="294" y="1095"/>
      <point x="235" y="918"/>
      <point x="263" y="842" type="qcurve" smooth="yes"/>
      <point x="286" y="782"/>
      <point x="283" y="728"/>
      <point x="258" y="726" type="qcurve" smooth="yes"/>
      <point x="233" y="723"/>
      <point x="195" y="769"/>
      <point x="178" y="850"/>
      <point x="177" y="945"/>
      <point x="198" y="1049"/>
      <point x="219" y="1091" type="qcurve" smooth="yes"/>
      <point x="261" y="1175"/>
      <point x="393" y="1267"/>
    </contour>
  </outline>
</glyph>
<glyph name="three" format="2">
  <advance width="863"/>
  <unicode hex="0033"/>
  <outline>
    <contour>
      <point x="469" y="1245" type="qcurve" smooth="yes"/>
      <point x="532" y="1262"/>
      <point x="656" y="1241"/>
      <point x="749" y="1177"/>
      <point x="817" y="1080"/>
      <point x="832" y="962"/>
      <point x="816" y="899" type="qcurve" smooth="yes"/>
      <point x="793" y="825"/>
      <point x="721" y="733"/>
      <point x="654" y="694" type="qcurve" smooth="yes"/>
      <point x="609" y="668"/>
      <point x="596" y="629"/>
      <point x="624" y="598" type="qcurve" smooth="yes"/>
      <point x="677" y="538"/>
      <point x="700" y="369"/>
      <point x="650" y="203"/>
      <point x="529" y="50"/>
      <point x="445" y="7" type="qcurve" smooth="yes"/>
      <point x="390" y="-21"/>
      <point x="217" y="-28"/>
      <point x="172" y="-3" type="qcurve" smooth="yes"/>
      <point x="79" y="47"/>
      <point x="15" y="273"/>
      <point x="66" y="373" type="qcurve" smooth="yes"/>
      <point x="92" y="423"/>
      <point x="119" y="428" type="qcurve" smooth="yes"/>
      <point x="139" y="431"/>
      <point x="142" y="405" type="qcurve" smooth="yes"/>
      <point x="145" y="387"/>
      <point x="136" y="360" type="qcurve" smooth="yes"/>
      <point x="103" y="253"/>
      <point x="123" y="134"/>
      <point x="183" y="75" type="qcurve" smooth="yes"/>
      <point x="263" y="-4"/>
      <point x="361" y="75" type="qcurve" smooth="yes"/>
      <point x="442" y="140"/>
      <point x="491" y="274" type="qcurve" smooth="yes"/>
      <point x="545" y="419"/>
      <point x="516" y="518" type="qcurve" smooth="yes"/>
      <point x="498" y="579"/>
      <point x="449" y="602" type="qcurve" smooth="yes"/>
      <point x="421" y="615"/>
      <point x="405" y="646"/>
      <point x="431" y="679"/>
      <point x="464" y="695" type="qcurve" smooth="yes"/>
      <point x="511" y="719"/>
      <point x="593" y="820"/>
      <point x="638" y="936"/>
      <point x="650" y="1056"/>
      <point x="627" y="1099" type="qcurve" smooth="yes"/>
      <point x="569" y="1222"/>
      <point x="438" y="1154" type="qcurve" smooth="yes"/>
      <point x="389" y="1129"/>
      <point x="281" y="971"/>
      <point x="267" y="904" type="qcurve" smooth="yes"/>
      <point x="261" y="875"/>
      <point x="228" y="846"/>
      <point x="202" y="868"/>
      <point x="205" y="914"/>
      <point x="223" y="969" type="qcurve" smooth="yes"/>
      <point x="266" y="1095"/>
      <point x="378" y="1220"/>
    </contour>
  </outline>
</glyph>
<glyph name="four" format="2">
  <advance width="941"/>
  <unicode hex="0034"/>
  <outline>
    <contour>
      <point x="663" y="1002" type="qcurve" smooth="yes"/>
      <point x="663" y="1029"/>
      <point x="652" y="1029" type="qcurve" smooth="yes"/>
      <point x="642" y="1029"/>
      <point x="439" y="824"/>
      <point x="394" y="769" type="qcurve" smooth="yes"/>
      <point x="242" y="589"/>
      <point x="221" y="570" type="qcurve" smooth="yes"/>
      <point x="201" y="548"/>
      <point x="181" y="502"/>
      <point x="188" y="495" type="qcurve" smooth="yes"/>
      <point x="191" y="490"/>
      <point x="345" y="485" type="qcurve" smooth="yes"/>
      <point x="401" y="483"/>
      <point x="448" y="482"/>
      <point x="504" y="488"/>
      <point x="519" y="493"/>
      <point x="541" y="519"/>
      <point x="547" y="540"/>
      <point x="554" y="567" type="qcurve" smooth="yes"/>
      <point x="560" y="590" type="line" smooth="yes"/>
      <point x="567" y="614"/>
      <point x="586" y="684"/>
      <point x="609" y="773"/>
      <point x="632" y="862"/>
      <point x="651" y="940"/>
      <point x="663" y="995"/>
    </contour>
    <contour>
      <point x="805" y="1282" type="qcurve" smooth="yes"/>
      <point x="838" y="1299"/>
      <point x="906" y="1262"/>
      <point x="906" y="1227" type="qcurve" smooth="yes"/>
      <point x="906" y="1210"/>
      <point x="870" y="1089"/>
      <point x="818" y="918"/>
      <point x="805" y="864" type="qcurve" smooth="yes"/>
      <point x="784" y="779"/>
      <point x="745" y="640" type="qcurve" smooth="yes"/>
      <point x="715" y="534"/>
      <point x="709" y="491"/>
      <point x="723" y="473" type="qcurve" smooth="yes"/>
      <point x="740" y="449"/>
      <point x="739" y="424"/>
      <point x="720" y="414" type="qcurve" smooth="yes"/>
      <point x="698" y="402"/>
      <point x="676" y="350"/>
      <point x="650" y="249" type="qcurve" smooth="yes"/>
      <point x="609" y="90"/>
      <point x="520" y="-15"/>
      <point x="443" y="7" type="qcurve" smooth="yes"/>
      <point x="408" y="17"/>
      <point x="402" y="33" type="qcurve" smooth="yes"/>
      <point x="394" y="56"/>
      <point x="428" y="161" type="qcurve" smooth="yes"/>
      <point x="435" y="180"/>
      <point x="446" y="214" type="qcurve" smooth="yes"/>
      <point x="499" y="376"/>
      <point x="496" y="392" type="qcurve" smooth="yes"/>
      <point x="494" y="404"/>
      <point x="434" y="409"/>
      <point x="278" y="410" type="qcurve" smooth="yes"/>
      <point x="88" y="411"/>
      <point x="54" y="425" type="qcurve" smooth="yes"/>
      <point x="22" y="437"/>
      <point x="49" y="476" type="qcurve" smooth="yes"/>
      <point x="62" y="495"/>
      <point x="101" y="536" type="qcurve" smooth="yes"/>
      <point x="104" y="539"/>
      <point x="171" y="613"/>
      <point x="278" y="733"/>
      <point x="315" y="778" type="qcurve" smooth="yes"/>
      <point x="346" y="815"/>
      <point x="450" y="923"/>
      <point x="467" y="942" type="qcurve" smooth="yes"/>
      <point x="510" y="995"/>
      <point x="786" y="1272"/>
    </contour>
  </outline>
</glyph>
<glyph name="five" format="2">
  <advance width="872"/>
  <unicode hex="0035"/>
  <outline>
    <contour>
      <point x="426" y="1245" type="qcurve" smooth="yes"/>
      <point x="468" y="1260"/>
      <point x="786" y="1250"/>
      <point x="809" y="1233" type="qcurve" smooth="yes"/>
      <point x="850" y="1202"/>
      <point x="829" y="1164" type="qcurve" smooth="yes"/>
      <point x="814" y="1136"/>
      <point x="739" y="1121"/>
      <point x="614" y="1120" type="qcurve" smooth="yes"/>
      <point x="497" y="1119"/>
      <point x="474" y="1112" type="qcurve" smooth="yes"/>
      <point x="443" y="1103"/>
      <point x="426" y="1066" type="qcurve" smooth="yes"/>
      <point x="419" y="1050"/>
      <point x="398" y="989" type="qcurve" smooth="yes"/>
      <point x="342" y="828"/>
      <point x="345" y="798" type="qcurve" smooth="yes"/>
      <point x="348" y="776"/>
      <point x="381" y="780" type="qcurve" smooth="yes"/>
      <point x="385" y="780"/>
      <point x="391" y="781" type="qcurve" smooth="yes"/>
      <point x="473" y="794"/>
      <point x="578" y="774"/>
      <point x="641" y="731" type="qcurve" smooth="yes"/>
      <point x="709" y="685"/>
      <point x="773" y="527"/>
      <point x="756" y="349"/>
      <point x="683" y="175"/>
      <point x="541" y="31"/>
      <point x="452" y="-4" type="qcurve" smooth="yes"/>
      <point x="404" y="-23"/>
      <point x="207" y="-26"/>
      <point x="175" y="-9" type="qcurve" smooth="yes"/>
      <point x="138" y="12"/>
      <point x="60" y="101"/>
      <point x="47" y="137" type="qcurve" smooth="yes"/>
      <point x="31" y="195"/>
      <point x="45" y="331"/>
      <point x="104" y="443"/>
      <point x="137" y="443" type="qcurve" smooth="yes"/>
      <point x="181" y="443"/>
      <point x="137" y="345" type="qcurve" smooth="yes"/>
      <point x="100" y="261"/>
      <point x="117" y="138"/>
      <point x="174" y="83" type="qcurve" smooth="yes"/>
      <point x="220" y="39"/>
      <point x="335" y="38"/>
      <point x="442" y="113"/>
      <point x="534" y="259"/>
      <point x="558" y="353" type="qcurve" smooth="yes"/>
      <point x="607" y="544"/>
      <point x="508" y="730"/>
      <point x="367" y="713" type="qcurve" smooth="yes"/>
      <point x="257" y="700"/>
      <point x="245" y="705" type="qcurve" smooth="yes"/>
      <point x="238" y="708"/>
      <point x="236" y="726" type="qcurve" smooth="yes"/>
      <point x="233" y="743"/>
      <point x="279" y="890"/>
      <point x="339" y="1075"/>
      <point x="348" y="1120" type="qcurve" smooth="yes"/>
      <point x="371" y="1227"/>
    </contour>
  </outline>
</glyph>
<glyph name="six" format="2">
  <advance width="802"/>
  <unicode hex="0036"/>
  <outline>
    <contour>
      <point x="547" y="604" type="qcurve" smooth="yes"/>
      <point x="508" y="633"/>
      <point x="420" y="612"/>
      <point x="331" y="553" type="qcurve" smooth="yes"/>
      <point x="259" y="506"/>
      <point x="224" y="456"/>
      <point x="214" y="388" type="qcurve" smooth="yes"/>
      <point x="201" y="296"/>
      <point x="231" y="128"/>
      <point x="305" y="33"/>
      <point x="352" y="40" type="qcurve" smooth="yes"/>
      <point x="394" y="48"/>
      <point x="516" y="163"/>
      <point x="547" y="225" type="qcurve" smooth="yes"/>
      <point x="611" y="355"/>
      <point x="611" y="557"/>
    </contour>
    <contour>
      <point x="500" y="1235" type="qcurve" smooth="yes"/>
      <point x="623" y="1263"/>
      <point x="767" y="1190"/>
      <point x="767" y="1100" type="qcurve" smooth="yes"/>
      <point x="767" y="1039"/>
      <point x="747" y="1024" type="qcurve" smooth="yes"/>
      <point x="731" y="1011"/>
      <point x="721" y="1048" type="qcurve" smooth="yes"/>
      <point x="720" y="1052"/>
      <point x="719" y="1056" type="qcurve" smooth="yes"/>
      <point x="705" y="1116"/>
      <point x="647" y="1184"/>
      <point x="609" y="1184" type="qcurve" smooth="yes"/>
      <point x="451" y="1184"/>
      <point x="297" y="751" type="qcurve" smooth="yes"/>
      <point x="248" y="611"/>
      <point x="254" y="595" type="qcurve" smooth="yes"/>
      <point x="260" y="581"/>
      <point x="308" y="618" type="qcurve" smooth="yes"/>
      <point x="312" y="620"/>
      <point x="317" y="624" type="qcurve" smooth="yes"/>
      <point x="398" y="686"/>
      <point x="529" y="704"/>
      <point x="591" y="663" type="qcurve" smooth="yes"/>
      <point x="642" y="629"/>
      <point x="675" y="548"/>
      <point x="675" y="459" type="qcurve" smooth="yes"/>
      <point x="675" y="313"/>
      <point x="530" y="45"/>
      <point x="424" y="-2" type="qcurve" smooth="yes"/>
      <point x="356" y="-29"/>
      <point x="232" y="-19"/>
      <point x="130" y="64"/>
      <point x="60" y="188"/>
      <point x="29" y="363"/>
      <point x="39" y="460" type="qcurve" smooth="yes"/>
      <point x="59" y="654"/>
      <point x="193" y="991"/>
      <point x="390" y="1209"/>
    </contour>
  </outline>
</glyph>
<glyph name="eight" format="2">
  <advance width="889"/>
  <unicode hex="0038"/>
  <outline>
    <contour>
      <point x="388" y="560" type="qcurve" smooth="yes"/>
      <point x="372" y="590"/>
      <point x="340" y="595"/>
      <point x="305" y="571" type="qcurve" smooth="yes"/>
      <point x="162" y="475"/>
      <point x="82" y="203"/>
      <point x="165" y="93" type="qcurve" smooth="yes"/>
      <point x="219" y="21"/>
      <point x="367" y="79"/>
      <point x="423" y="194" type="qcurve" smooth="yes"/>
      <point x="458" y="266"/>
      <point x="439" y="462"/>
    </contour>
    <contour>
      <point x="713" y="1171" type="qcurve" smooth="yes"/>
      <point x="658" y="1204"/>
      <point x="549" y="1178"/>
      <point x="483" y="1084"/>
      <point x="456" y="947"/>
      <point x="481" y="868" type="qcurve" smooth="yes"/>
      <point x="490" y="837"/>
      <point x="500" y="806"/>
      <point x="518" y="781"/>
      <point x="530" y="777"/>
      <point x="560" y="786"/>
      <point x="587" y="803"/>
      <point x="614" y="822" type="qcurve" smooth="yes"/>
      <point x="691" y="874"/>
      <point x="775" y="988"/>
      <point x="775" y="1041" type="qcurve" smooth="yes"/>
      <point x="775" y="1077"/>
      <point x="737" y="1158"/>
    </contour>
    <contour>
      <point x="571" y="1258" type="qcurve" smooth="yes"/>
      <point x="674" y="1272"/>
      <point x="791" y="1219"/>
      <point x="832" y="1139" type="qcurve" smooth="yes"/>
      <point x="877" y="1050"/>
      <point x="784" y="845"/>
      <point x="665" y="770" type="qcurve" smooth="yes"/>
      <point x="600" y="730"/>
      <point x="554" y="688"/>
      <point x="558" y="674" type="qcurve" smooth="yes"/>
      <point x="577" y="623"/>
      <point x="599" y="561"/>
      <point x="635" y="429"/>
      <point x="647" y="333"/>
      <point x="639" y="219"/>
      <point x="618" y="179" type="qcurve" smooth="yes"/>
      <point x="577" y="98"/>
      <point x="425" y="-8"/>
      <point x="268" y="-35"/>
      <point x="120" y="19"/>
      <point x="81" y="86" type="qcurve" smooth="yes"/>
      <point x="-11" y="242"/>
      <point x="79" y="432" type="qcurve" smooth="yes"/>
      <point x="102" y="479"/>
      <point x="212" y="600"/>
      <point x="252" y="619" type="qcurve" smooth="yes"/>
      <point x="310" y="648"/>
      <point x="331" y="700"/>
      <point x="310" y="762" type="qcurve" smooth="yes"/>
      <point x="240" y="962"/>
      <point x="383" y="1233"/>
    </contour>
  </outline>
</glyph>
<glyph name="colon" format="2">
  <advance width="253"/>
  <unicode hex="003A"/>
  <outline>
    <contour>
      <point x="68" y="333" type="qcurve" smooth="yes"/>
      <point x="83" y="343"/>
      <point x="156" y="336"/>
      <point x="170" y="323" type="qcurve" smooth="yes"/>
      <point x="207" y="286"/>
      <point x="163" y="192"/>
      <point x="107" y="192" type="qcurve" smooth="yes"/>
      <point x="72" y="192"/>
      <point x="31" y="245"/>
      <point x="39" y="314"/>
    </contour>
    <contour>
      <point x="72" y="620" type="qcurve" smooth="yes"/>
      <point x="111" y="663"/>
      <point x="167" y="628" type="qcurve" smooth="yes"/>
      <point x="259" y="572"/>
      <point x="185" y="504" type="qcurve" smooth="yes"/>
      <point x="147" y="469"/>
      <point x="70" y="490"/>
      <point x="56" y="539" type="qcurve" smooth="yes"/>
      <point x="47" y="574"/>
      <point x="52" y="597"/>
    </contour>
  </outline>
</glyph>
<glyph name="less" format="2">
  <advance width="619"/>
  <unicode hex="003C"/>
  <outline>
    <contour>
      <point x="325" y="453" type="qcurve" smooth="yes"/>
      <point x="325" y="450"/>
      <point x="527" y="225"/>
      <point x="527" y="206" type="qcurve" smooth="yes"/>
      <point x="527" y="191"/>
      <point x="497" y="164"/>
      <point x="485" y="168" type="qcurve" smooth="yes"/>
      <point x="469" y="173"/>
      <point x="283" y="357"/>
      <point x="247" y="403" type="qcurve" smooth="yes"/>
      <point x="207" y="453"/>
      <point x="115" y="549"/>
      <point x="105" y="565" type="qcurve" smooth="yes"/>
      <point x="83" y="596"/>
      <point x="60" y="621" type="qcurve" smooth="yes"/>
      <point x="33" y="649"/>
      <point x="38" y="687"/>
      <point x="71" y="702" type="qcurve" smooth="yes"/>
      <point x="109" y="719"/>
      <point x="117" y="727" type="qcurve" smooth="yes"/>
      <point x="137" y="745"/>
      <point x="423" y="960"/>
      <point x="448" y="986" type="qcurve" smooth="yes"/>
      <point x="481" y="1019"/>
      <point x="504" y="1037" type="qcurve" smooth="yes"/>
      <point x="533" y="1059"/>
      <point x="584" y="1052"/>
      <point x="584" y="1026" type="qcurve" smooth="yes"/>
      <point x="584" y="997"/>
      <point x="380" y="829"/>
      <point x="175" y="672"/>
      <point x="175" y="655" type="qcurve" smooth="yes"/>
      <point x="175" y="630"/>
      <point x="250" y="535"/>
      <point x="325" y="458"/>
    </contour>
  </outline>
</glyph>
<glyph name="equal" format="2">
  <advance width="828"/>
  <unicode hex="003D"/>
  <outline>
    <contour>
      <point x="67" y="445" type="qcurve" smooth="yes"/>
      <point x="84" y="453"/>
      <point x="431" y="456" type="qcurve" smooth="yes"/>
      <point x="743" y="459"/>
      <point x="768" y="454" type="qcurve" smooth="yes"/>
      <point x="782" y="451"/>
      <point x="788" y="441" type="qcurve" smooth="yes"/>
      <point x="798" y="422"/>
      <point x="785" y="403" type="qcurve" smooth="yes"/>
      <point x="775" y="389"/>
      <point x="719" y="382"/>
      <point x="580" y="378" type="qcurve" smooth="yes"/>
      <point x="82" y="364"/>
      <point x="57" y="386" type="qcurve" smooth="yes"/>
      <point x="43" y="399"/>
      <point x="49" y="437"/>
    </contour>
    <contour>
      <point x="368" y="614" type="qcurve" smooth="yes"/>
      <point x="710" y="617"/>
      <point x="754" y="609" type="qcurve" smooth="yes"/>
      <point x="779" y="605"/>
      <point x="779" y="594" type="qcurve" smooth="yes"/>
      <point x="779" y="588"/>
      <point x="770" y="573" type="qcurve" smooth="yes"/>
      <point x="761" y="557"/>
      <point x="750" y="553" type="qcurve" smooth="yes"/>
      <point x="726" y="544"/>
      <point x="523" y="542" type="qcurve" smooth="yes"/>
      <point x="503" y="542"/>
      <point x="403" y="541" type="qcurve" smooth="yes"/>
      <point x="141" y="539"/>
      <point x="35" y="547"/>
      <point x="35" y="572" type="qcurve" smooth="yes"/>
      <point x="35" y="593"/>
      <point x="49" y="599" type="qcurve" smooth="yes"/>
      <point x="75" y="611"/>
      <point x="273" y="613" type="qcurve" smooth="yes"/>
      <point x="306" y="613"/>
    </contour>
  </outline>
</glyph>
<glyph name="A" format="2">
  <advance width="1717"/>
  <unicode hex="0041"/>
  <outline>
    <contour>
      <point x="684" y="624" type="qcurve" smooth="yes"/>
      <point x="669" y="629" type="line"/>
      <point x="664" y="628" type="line" smooth="yes"/>
      <point x="658" y="626"/>
      <point x="637" y="620"/>
      <point x="628" y="617" type="qcurve" smooth="yes"/>
      <point x="572" y="601"/>
      <point x="532" y="569"/>
      <point x="532" y="540" type="qcurve" smooth="yes"/>
      <point x="532" y="517"/>
      <point x="488" y="402"/>
      <point x="470" y="377" type="qcurve" smooth="yes"/>
      <point x="438" y="334"/>
      <point x="395" y="330" type="qcurve" smooth="yes"/>
      <point x="361" y="326"/>
      <point x="360" y="351" type="qcurve" smooth="yes"/>
      <point x="359" y="363"/>
      <point x="368" y="380" type="qcurve" smooth="yes"/>
      <point x="417" y="468"/>
      <point x="432" y="522"/>
      <point x="414" y="548" type="qcurve"/>
      <point x="374" y="592"/>
      <point x="272" y="567"/>
      <point x="183" y="438"/>
      <point x="183" y="362" type="qcurve" smooth="yes"/>
      <point x="183" y="300"/>
      <point x="270" y="192"/>
      <point x="321" y="192" type="qcurve" smooth="yes"/>
      <point x="365" y="192"/>
      <point x="529" y="332"/>
      <point x="585" y="416" type="qcurve" smooth="yes"/>
      <point x="690" y="573"/>
      <point x="697" y="600" type="qcurve" smooth="yes"/>
      <point x="701" y="618"/>
    </contour>
    <contour>
      <point x="1386" y="1141" type="qcurve" smooth="yes"/>
      <point x="1386" y="1173"/>
      <point x="1311" y="1106" type="qcurve" smooth="yes"/>
      <point x="1219" y="1023"/>
      <point x="1132" y="901" type="qcurve" smooth="yes"/>
      <point x="1088" y="840"/>
      <point x="1068" y="800"/>
      <point x="1079" y="792" type="qcurve" smooth="yes"/>
      <point x="1090" y="785"/>
      <point x="1255" y="819"/>
      <point x="1266" y="830" type="qcurve" smooth="yes"/>
      <point x="1284" y="847"/>
      <point x="1386" y="1112"/>
    </contour>
    <contour>
      <point x="1531" y="1487" type="qcurve" smooth="yes"/>
      <point x="1554" y="1495"/>
      <point x="1634" y="1486"/>
      <point x="1658" y="1473" type="qcurve" smooth="yes"/>
      <point x="1684" y="1460"/>
      <point x="1678" y="1387"/>
      <point x="1642" y="1296" type="qcurve" smooth="yes"/>
      <point x="1562" y="1091"/>
      <point x="1330" y="360"/>
      <point x="1316" y="268" type="qcurve" smooth="yes"/>
      <point x="1301" y="169"/>
      <point x="1347" y="170" type="qcurve" smooth="yes"/>
      <point x="1398" y="171"/>
      <point x="1487" y="285" type="qcurve" smooth="yes"/>
      <point x="1510" y="316"/>
      <point x="1534" y="352" type="qcurve" smooth="yes"/>
      <point x="1586" y="432"/>
      <point x="1613" y="415" type="qcurve" smooth="yes"/>
      <point x="1637" y="400"/>
      <point x="1551" y="240"/>
      <point x="1484" y="176" type="qcurve" smooth="yes"/>
      <point x="1418" y="113"/>
      <point x="1341" y="77"/>
      <point x="1282" y="80" type="qcurve" smooth="yes"/>
      <point x="1039" y="94"/>
      <point x="1208" y="595" type="qcurve" smooth="yes"/>
      <point x="1223" y="639"/>
      <point x="1236" y="680"/>
      <point x="1235" y="719"/>
      <point x="1224" y="728"/>
      <point x="1178" y="729"/>
      <point x="1129" y="717"/>
      <point x="1077" y="704" type="qcurve" smooth="yes"/>
      <point x="1033" y="693"/>
      <point x="989" y="681"/>
      <point x="938" y="658"/>
      <point x="916" y="641"/>
      <point x="878" y="597"/>
      <point x="853" y="557"/>
      <point x="828" y="515" type="qcurve" smooth="yes"/>
      <point x="809" y="483"/>
      <point x="776" y="442"/>
      <point x="767" y="428" type="qcurve" smooth="yes"/>
      <point x="700" y="332"/>
      <point x="455" y="119"/>
      <point x="388" y="100" type="qcurve" smooth="yes"/>
      <point x="325" y="80"/>
      <point x="215" y="98"/>
      <point x="124" y="149"/>
      <point x="61" y="238"/>
      <point x="30" y="341"/>
      <point x="42" y="465"/>
      <point x="71" y="525" type="qcurve" smooth="yes"/>
      <point x="173" y="738"/>
      <point x="400" y="664" type="qcurve" smooth="yes"/>
      <point x="448" y="649"/>
      <point x="480" y="650"/>
      <point x="538" y="669" type="qcurve" smooth="yes"/>
      <point x="611" y="694"/>
      <point x="689" y="699" type="qcurve" smooth="yes"/>
      <point x="758" y="704"/>
      <point x="806" y="738"/>
      <point x="891" y="839" type="qcurve" smooth="yes"/>
      <point x="1049" y="1023"/>
      <point x="1142" y="1102" type="qcurve" smooth="yes"/>
      <point x="1172" y="1127"/>
      <point x="1224" y="1170"/>
      <point x="1255" y="1194"/>
      <point x="1277" y="1211"/>
      <point x="1282" y="1214" type="qcurve" smooth="yes"/>
      <point x="1286" y="1218" type="line" smooth="yes"/>
      <point x="1296" y="1228"/>
      <point x="1384" y="1300" type="qcurve" smooth="yes"/>
      <point x="1465" y="1365"/>
      <point x="1473" y="1382" type="qcurve" smooth="yes"/>
      <point x="1479" y="1398"/>
      <point x="1453" y="1402" type="qcurve" smooth="yes"/>
      <point x="1412" y="1408"/>
      <point x="1141" y="1375" type="qcurve"/>
      <point x="1140" y="1375" type="line"/>
      <point x="1139" y="1375" type="line"/>
      <point x="1138" y="1374" type="line"/>
      <point x="1137" y="1374" type="line"/>
      <point x="1136" y="1374" type="line"/>
      <point x="1135" y="1374" type="line"/>
      <point x="1134" y="1374" type="line"/>
      <point x="1133" y="1374" type="line"/>
      <point x="1132" y="1374" type="line"/>
      <point x="1131" y="1374" type="line"/>
      <point x="1130" y="1374" type="line"/>
      <point x="1129" y="1373" type="line"/>
      <point x="1128" y="1373" type="line"/>
      <point x="1127" y="1373" type="line"/>
      <point x="1126" y="1373" type="line"/>
      <point x="1125" y="1373" type="line"/>
      <point x="1124" y="1373" type="line"/>
      <point x="1123" y="1373" type="line"/>
      <point x="1122" y="1373" type="line"/>
      <point x="1121" y="1372" type="line"/>
      <point x="1120" y="1372" type="line"/>
      <point x="1119" y="1372" type="line"/>
      <point x="1117" y="1372" type="line"/>
      <point x="854" y="1340"/>
      <point x="541" y="1237"/>
      <point x="449" y="1153" type="qcurve" smooth="yes"/>
      <point x="378" y="1088"/>
      <point x="364" y="982"/>
      <point x="420" y="935" type="qcurve" smooth="yes"/>
      <point x="468" y="894"/>
      <point x="448" y="844"/>
      <point x="387" y="854" type="qcurve" smooth="yes"/>
      <point x="333" y="862"/>
      <point x="251" y="936"/>
      <point x="216" y="1033"/>
      <point x="230" y="1147"/>
      <point x="265" y="1193" type="qcurve" smooth="yes"/>
      <point x="352" y="1306"/>
      <point x="843" y="1428"/>
      <point x="1383" y="1469" type="qcurve" smooth="yes"/>
      <point x="1498" y="1478"/>
    </contour>
  </outline>
</glyph>
<glyph name="D" format="2">
  <advance width="1717"/>
  <unicode hex="0044"/>
  <outline>
    <contour>
      <point x="1394" y="1274" type="qcurve" smooth="yes"/>
      <point x="1364" y="1290"/>
      <point x="1334" y="1300"/>
      <point x="1299" y="1284"/>
      <point x="1271" y="1247"/>
      <point x="1244" y="1205" type="qcurve" smooth="yes"/>
      <point x="1208" y="1149"/>
      <point x="1097" y="938"/>
      <point x="1088" y="907" type="qcurve" smooth="yes"/>
      <point x="1085" y="895"/>
      <point x="979" y="679"/>
      <point x="979" y="669" type="qcurve" smooth="yes"/>
      <point x="979" y="655"/>
      <point x="874" y="449" type="qcurve" smooth="yes"/>
      <point x="780" y="262"/>
      <point x="767" y="188"/>
      <point x="821" y="150" type="qcurve" smooth="yes"/>
      <point x="822" y="149"/>
      <point x="823" y="149" type="qcurve" smooth="yes"/>
      <point x="974" y="43"/>
      <point x="1200" y="121"/>
      <point x="1318" y="319" type="qcurve" smooth="yes"/>
      <point x="1402" y="458"/>
      <point x="1456" y="667" type="qcurve" smooth="yes"/>
      <point x="1467" y="716"/>
      <point x="1490" y="798" type="qcurve" smooth="yes"/>
      <point x="1506" y="855"/>
      <point x="1508" y="1093"/>
      <point x="1493" y="1142" type="qcurve" smooth="yes"/>
      <point x="1477" y="1193"/>
      <point x="1432" y="1254"/>
    </contour>
    <contour>
      <point x="1365" y="1446" type="qcurve" smooth="yes"/>
      <point x="1445" y="1485"/>
      <point x="1500" y="1494"/>
      <point x="1534" y="1475" type="qcurve" smooth="yes"/>
      <point x="1555" y="1463"/>
      <point x="1531" y="1415"/>
      <point x="1496" y="1399" type="qcurve" smooth="yes"/>
      <point x="1471" y="1387"/>
      <point x="1457" y="1366"/>
      <point x="1477" y="1339"/>
      <point x="1507" y="1320" type="qcurve" smooth="yes"/>
      <point x="1602" y="1257"/>
      <point x="1682" y="1060"/>
      <point x="1682" y="889" type="qcurve" smooth="yes"/>
      <point x="1681" y="746"/>
      <point x="1637" y="555"/>
      <point x="1570" y="404" type="qcurve" smooth="yes"/>
      <point x="1485" y="212"/>
      <point x="1205" y="1"/>
      <point x="1035" y="1" type="qcurve" smooth="yes"/>
      <point x="964" y="2"/>
      <point x="868" y="37"/>
      <point x="778" y="95" type="qcurve" smooth="yes"/>
      <point x="708" y="141"/>
      <point x="676" y="149"/>
      <point x="642" y="127" type="qcurve" smooth="yes"/>
      <point x="559" y="76"/>
      <point x="456" y="40"/>
      <point x="377" y="34" type="qcurve" smooth="yes"/>
      <point x="298" y="27"/>
      <point x="240" y="33"/>
      <point x="225" y="47" type="qcurve" smooth="yes"/>
      <point x="219" y="53"/>
      <point x="157" y="99" type="qcurve" smooth="yes"/>
      <point x="87" y="148"/>
      <point x="27" y="293"/>
      <point x="49" y="428"/>
      <point x="152" y="541"/>
      <point x="234" y="562" type="qcurve" smooth="yes"/>
      <point x="387" y="600"/>
      <point x="567" y="472"/>
      <point x="541" y="344" type="qcurve" smooth="yes"/>
      <point x="531" y="297"/>
      <point x="485" y="249"/>
      <point x="434" y="232" type="qcurve" smooth="yes"/>
      <point x="376" y="213"/>
      <point x="357" y="256"/>
      <point x="401" y="306" type="qcurve" smooth="yes"/>
      <point x="426" y="334"/>
      <point x="439" y="369"/>
      <point x="437" y="402" type="qcurve" smooth="yes"/>
      <point x="435" y="425"/>
      <point x="382" y="471"/>
      <point x="357" y="471" type="qcurve" smooth="yes"/>
      <point x="313" y="471"/>
      <point x="237" y="409"/>
      <point x="198" y="322"/>
      <point x="203" y="224"/>
      <point x="233" y="191" type="qcurve" smooth="yes"/>
      <point x="256" y="166"/>
      <point x="355" y="123"/>
      <point x="378" y="128" type="qcurve" smooth="yes"/>
      <point x="483" y="150"/>
      <point x="654" y="368"/>
      <point x="761" y="615" type="qcurve" smooth="yes"/>
      <point x="799" y="704"/>
      <point x="925" y="957"/>
      <point x="959" y="1015" type="qcurve" smooth="yes"/>
      <point x="1054" y="1175"/>
      <point x="1091" y="1216" type="qcurve" smooth="yes"/>
      <point x="1126" y="1254"/>
      <point x="1158" y="1298"/>
      <point x="1159" y="1328"/>
      <point x="1130" y="1341"/>
      <point x="1097" y="1345" type="qcurve" smooth="yes"/>
      <point x="962" y="1363"/>
      <point x="527" y="1246"/>
      <point x="445" y="1170" type="qcurve" smooth="yes"/>
      <point x="423" y="1150"/>
      <point x="418" y="1150" type="qcurve" smooth="yes"/>
      <point x="408" y="1150"/>
      <point x="345" y="1055"/>
      <point x="332" y="1022" type="qcurve" smooth="yes"/>
      <point x="315" y="978"/>
      <point x="335" y="923"/>
      <point x="375" y="898" type="qcurve" smooth="yes"/>
      <point x="422" y="870"/>
      <point x="417" y="819"/>
      <point x="368" y="819" type="qcurve" smooth="yes"/>
      <point x="289" y="820"/>
      <point x="174" y="942"/>
      <point x="174" y="1026" type="qcurve" smooth="yes"/>
      <point x="174" y="1113"/>
      <point x="296" y="1254"/>
      <point x="488" y="1338"/>
      <point x="719" y="1395"/>
      <point x="943" y="1413"/>
      <point x="1124" y="1410"/>
      <point x="1173" y="1398" type="qcurve" smooth="yes"/>
      <point x="1220" y="1386"/>
      <point x="1265" y="1397"/>
    </contour>
  </outline>
</glyph>
<glyph name="F" format="2">
  <advance width="1586"/>
  <unicode hex="0046"/>
  <outline>
    <contour>
      <point x="416" y="1466" type="qcurve" smooth="yes"/>
      <point x="488" y="1481"/>
      <point x="569" y="1482"/>
      <point x="665" y="1470" type="qcurve" smooth="yes"/>
      <point x="668" y="1470"/>
      <point x="833" y="1452"/>
      <point x="1016" y="1431"/>
      <point x="1034" y="1427" type="qcurve" smooth="yes"/>
      <point x="1090" y="1414"/>
      <point x="1264" y="1414"/>
      <point x="1312" y="1396" type="qcurve" smooth="yes"/>
      <point x="1413" y="1358"/>
      <point x="1487" y="1401" type="qcurve" smooth="yes"/>
      <point x="1534" y="1428"/>
      <point x="1562" y="1385"/>
      <point x="1525" y="1343" type="qcurve" smooth="yes"/>
      <point x="1502" y="1317"/>
      <point x="1419" y="1302"/>
      <point x="1323" y="1307" type="qcurve" smooth="yes"/>
      <point x="1247" y="1311"/>
      <point x="1215" y="1305"/>
      <point x="1194" y="1283" type="qcurve" smooth="yes"/>
      <point x="1164" y="1254"/>
      <point x="1104" y="1131"/>
      <point x="1084" y="1058" type="qcurve" smooth="yes"/>
      <point x="1063" y="982"/>
      <point x="1081" y="949"/>
      <point x="1141" y="951" type="qcurve" smooth="yes"/>
      <point x="1224" y="954"/>
      <point x="1231" y="928" type="qcurve" smooth="yes"/>
      <point x="1237" y="908"/>
      <point x="1194" y="890" type="qcurve" smooth="yes"/>
      <point x="1157" y="875"/>
      <point x="1101" y="871" type="qcurve" smooth="yes"/>
      <point x="1027" y="865"/>
      <point x="992" y="836"/>
      <point x="970" y="759" type="qcurve" smooth="yes"/>
      <point x="929" y="618"/>
      <point x="821" y="364"/>
      <point x="760" y="255"/>
      <point x="754" y="249" type="qcurve" smooth="yes"/>
      <point x="745" y="240"/>
      <point x="719" y="201" type="qcurve" smooth="yes"/>
      <point x="588" y="9"/>
      <point x="357" y="1" type="qcurve" smooth="yes"/>
      <point x="281" y="-1"/>
      <point x="240" y="10"/>
      <point x="187" y="45" type="qcurve" smooth="yes"/>
      <point x="125" y="86"/>
      <point x="86" y="126"/>
      <point x="64" y="170" type="qcurve" smooth="yes"/>
      <point x="30" y="235"/>
      <point x="41" y="364"/>
      <point x="101" y="470"/>
      <point x="219" y="539"/>
      <point x="292" y="544" type="qcurve" smooth="yes"/>
      <point x="407" y="551"/>
      <point x="549" y="435"/>
      <point x="547" y="334" type="qcurve" smooth="yes"/>
      <point x="546" y="277"/>
      <point x="529" y="236"/>
      <point x="501" y="223" type="qcurve" smooth="yes"/>
      <point x="483" y="214"/>
      <point x="429" y="173"/>
      <point x="408" y="169" type="qcurve" smooth="yes"/>
      <point x="362" y="159"/>
      <point x="366" y="187" type="qcurve" smooth="yes"/>
      <point x="368" y="209"/>
      <point x="400" y="250" type="qcurve" smooth="yes"/>
      <point x="424" y="281"/>
      <point x="439" y="347"/>
      <point x="421" y="395"/>
      <point x="383" y="429"/>
      <point x="324" y="430"/>
      <point x="289" y="415" type="qcurve" smooth="yes"/>
      <point x="218" y="380"/>
      <point x="187" y="220"/>
      <point x="239" y="152" type="qcurve" smooth="yes"/>
      <point x="293" y="81"/>
      <point x="431" y="100"/>
      <point x="524" y="191" type="qcurve" smooth="yes"/>
      <point x="574" y="240"/>
      <point x="627" y="320"/>
      <point x="682" y="453"/>
      <point x="740" y="619" type="qcurve" smooth="yes"/>
      <point x="788" y="758"/>
      <point x="769" y="795"/>
      <point x="672" y="751" type="qcurve" smooth="yes"/>
      <point x="605" y="719"/>
      <point x="544" y="707"/>
      <point x="531" y="723" type="qcurve" smooth="yes"/>
      <point x="518" y="737"/>
      <point x="567" y="782"/>
      <point x="615" y="802" type="qcurve" smooth="yes"/>
      <point x="774" y="866"/>
      <point x="796" y="879" type="qcurve" smooth="yes"/>
      <point x="836" y="901"/>
      <point x="856" y="939" type="qcurve" smooth="yes"/>
      <point x="860" y="948"/>
      <point x="896" y="1037" type="qcurve" smooth="yes"/>
      <point x="951" y="1169"/>
      <point x="988" y="1232" type="qcurve" smooth="yes"/>
      <point x="1046" y="1332"/>
      <point x="991" y="1371"/>
      <point x="579" y="1381"/>
      <point x="396" y="1339"/>
      <point x="324" y="1269" type="qcurve" smooth="yes"/>
      <point x="282" y="1229"/>
      <point x="248" y="1164"/>
      <point x="249" y="1126" type="qcurve" smooth="yes"/>
      <point x="251" y="1034"/>
      <point x="411" y="941"/>
      <point x="496" y="984" type="qcurve" smooth="yes"/>
      <point x="544" y="1009"/>
      <point x="571" y="991"/>
      <point x="551" y="949" type="qcurve" smooth="yes"/>
      <point x="528" y="900"/>
      <point x="398" y="869"/>
      <point x="247" y="912"/>
      <point x="197" y="963" type="qcurve" smooth="yes"/>
      <point x="148" y="1015"/>
      <point x="119" y="1078"/>
      <point x="115" y="1138" type="qcurve" smooth="yes"/>
      <point x="107" y="1275"/>
      <point x="251" y="1432"/>
    </contour>
  </outline>
</glyph>
<glyph name="G" format="2">
  <advance width="1185"/>
  <unicode hex="0047"/>
  <outline>
    <contour>
      <point x="857" y="1408" type="qcurve" smooth="yes"/>
      <point x="761" y="1430"/>
      <point x="552" y="1320"/>
      <point x="462" y="1201" type="qcurve" smooth="yes"/>
      <point x="440" y="1171"/>
      <point x="431" y="1162" type="qcurve" smooth="yes"/>
      <point x="425" y="1158"/>
      <point x="350" y="1006"/>
      <point x="315" y="930" type="qcurve" smooth="yes"/>
      <point x="241" y="763"/>
      <point x="253" y="463"/>
      <point x="338" y="412" type="qcurve" smooth="yes"/>
      <point x="448" y="345"/>
      <point x="715" y="472"/>
      <point x="824" y="643" type="qcurve" smooth="yes"/>
      <point x="932" y="813"/>
      <point x="964" y="848" type="qcurve" smooth="yes"/>
      <point x="1003" y="891"/>
      <point x="1003" y="917" type="qcurve" smooth="yes"/>
      <point x="1002" y="921"/>
      <point x="989" y="921"/>
      <point x="972" y="914"/>
      <point x="968" y="909" type="qcurve" smooth="yes"/>
      <point x="955" y="892"/>
      <point x="802" y="803"/>
      <point x="763" y="789" type="qcurve" smooth="yes"/>
      <point x="697" y="766"/>
      <point x="528" y="763"/>
      <point x="484" y="785" type="qcurve" smooth="yes"/>
      <point x="430" y="812"/>
      <point x="420" y="846" type="qcurve" smooth="yes"/>
      <point x="411" y="873"/>
      <point x="440" y="878" type="qcurve" smooth="yes"/>
      <point x="457" y="881"/>
      <point x="482" y="874" type="qcurve" smooth="yes"/>
      <point x="672" y="819"/>
      <point x="813" y="936" type="qcurve" smooth="yes"/>
      <point x="913" y="1019"/>
      <point x="948" y="1150" type="qcurve" smooth="yes"/>
      <point x="981" y="1271"/>
      <point x="937" y="1348" type="qcurve" smooth="yes"/>
      <point x="910" y="1396"/>
    </contour>
    <contour>
      <point x="687" y="1485" type="qcurve" smooth="yes"/>
      <point x="801" y="1500"/>
      <point x="980" y="1454"/>
      <point x="1080" y="1346"/>
      <point x="1109" y="1186"/>
      <point x="1073" y="1087" type="qcurve" smooth="yes"/>
      <point x="1065" y="1061"/>
      <point x="1037" y="983"/>
      <point x="1037" y="982" type="qcurve" smooth="yes"/>
      <point x="1027" y="954"/>
      <point x="1040" y="944"/>
      <point x="1073" y="954" type="qcurve" smooth="yes"/>
      <point x="1136" y="972"/>
      <point x="1159" y="912"/>
      <point x="1118" y="843" type="qcurve" smooth="yes"/>
      <point x="1080" y="781"/>
      <point x="1062" y="724" type="qcurve" smooth="yes"/>
      <point x="983" y="498"/>
      <point x="937" y="326" type="qcurve" smooth="yes"/>
      <point x="874" y="77"/>
      <point x="678" y="-247"/>
      <point x="555" y="-306" type="qcurve" smooth="yes"/>
      <point x="462" y="-351"/>
      <point x="206" y="-318"/>
      <point x="129" y="-251" type="qcurve" smooth="yes"/>
      <point x="59" y="-189"/>
      <point x="22" y="-3"/>
      <point x="96" y="167"/>
      <point x="177" y="206" type="qcurve" smooth="yes"/>
      <point x="310" y="272"/>
      <point x="346" y="255" type="qcurve" smooth="yes"/>
      <point x="380" y="237"/>
      <point x="401" y="207"/>
      <point x="378" y="177"/>
      <point x="343" y="158" type="qcurve" smooth="yes"/>
      <point x="273" y="121"/>
      <point x="193" y="-3"/>
      <point x="186" y="-124"/>
      <point x="254" y="-228"/>
      <point x="321" y="-247" type="qcurve" smooth="yes"/>
      <point x="422" y="-276"/>
      <point x="619" y="-62"/>
      <point x="682" y="146" type="qcurve" smooth="yes"/>
      <point x="696" y="197"/>
      <point x="736" y="315" type="qcurve" smooth="yes"/>
      <point x="770" y="419"/>
      <point x="756" y="428" type="qcurve" smooth="yes"/>
      <point x="745" y="435"/>
      <point x="688" y="393" type="qcurve" smooth="yes"/>
      <point x="638" y="356"/>
      <point x="628" y="346" type="qcurve" smooth="yes"/>
      <point x="616" y="334"/>
      <point x="520" y="300"/>
      <point x="484" y="295" type="qcurve" smooth="yes"/>
      <point x="387" y="281"/>
      <point x="155" y="392"/>
      <point x="132" y="463" type="qcurve" smooth="yes"/>
      <point x="124" y="490"/>
      <point x="101" y="532" type="qcurve" smooth="yes"/>
      <point x="54" y="614"/>
      <point x="91" y="932"/>
      <point x="164" y="1076" type="qcurve" smooth="yes"/>
      <point x="245" y="1235"/>
      <point x="542" y="1467"/>
    </contour>
  </outline>
</glyph>
<glyph name="H" format="2">
  <advance width="1900"/>
  <unicode hex="0048"/>
  <outline>
    <contour>
      <point x="644" y="605" type="qcurve" smooth="yes"/>
      <point x="644" y="626"/>
      <point x="607" y="630"/>
      <point x="558" y="614" type="qcurve" smooth="yes"/>
      <point x="515" y="602"/>
      <point x="449" y="595" type="qcurve" smooth="yes"/>
      <point x="353" y="584"/>
      <point x="214" y="498"/>
      <point x="156" y="383"/>
      <point x="184" y="244"/>
      <point x="245" y="184" type="qcurve" smooth="yes"/>
      <point x="291" y="139"/>
      <point x="413" y="163"/>
      <point x="478" y="229" type="qcurve" smooth="yes"/>
      <point x="534" y="286"/>
      <point x="643" y="535"/>
    </contour>
    <contour>
      <point x="1738" y="1400" type="qcurve" smooth="yes"/>
      <point x="1697" y="1420"/>
      <point x="1638" y="1390" type="qcurve" smooth="yes"/>
      <point x="1596" y="1368"/>
      <point x="1475" y="1166"/>
      <point x="1409" y="973"/>
      <point x="1436" y="963" type="qcurve" smooth="yes"/>
      <point x="1445" y="960"/>
      <point x="1503" y="981"/>
      <point x="1510" y="991" type="qcurve" smooth="yes"/>
      <point x="1524" y="1005"/>
      <point x="1553" y="1026" type="qcurve" smooth="yes"/>
      <point x="1611" y="1069"/>
      <point x="1703" y="1163"/>
      <point x="1760" y="1250"/>
      <point x="1784" y="1326"/>
      <point x="1767" y="1385"/>
    </contour>
    <contour>
      <point x="1104" y="1472" type="qcurve" smooth="yes"/>
      <point x="1148" y="1495"/>
      <point x="1208" y="1484"/>
      <point x="1250" y="1445" type="qcurve" smooth="yes"/>
      <point x="1274" y="1423"/>
      <point x="1277" y="1360"/>
      <point x="1244" y="1315"/>
      <point x="1192" y="1291"/>
      <point x="1161" y="1308" type="qcurve" smooth="yes"/>
      <point x="1097" y="1341"/>
      <point x="1011" y="1259"/>
      <point x="977" y="1131" type="qcurve" smooth="yes"/>
      <point x="950" y="1024"/>
      <point x="923" y="932" type="qcurve" smooth="yes"/>
      <point x="907" y="874"/>
      <point x="892" y="811"/>
      <point x="895" y="760"/>
      <point x="912" y="744"/>
      <point x="964" y="746"/>
      <point x="1027" y="765"/>
      <point x="1084" y="785" type="qcurve" smooth="yes"/>
      <point x="1151" y="809"/>
      <point x="1184" y="848"/>
      <point x="1221" y="945" type="qcurve" smooth="yes"/>
      <point x="1309" y="1179"/>
      <point x="1470" y="1418"/>
      <point x="1568" y="1463" type="qcurve" smooth="yes"/>
      <point x="1647" y="1499"/>
      <point x="1818" y="1460"/>
      <point x="1852" y="1399" type="qcurve" smooth="yes"/>
      <point x="1874" y="1359"/>
      <point x="1842" y="1204"/>
      <point x="1804" y="1163" type="qcurve" smooth="yes"/>
      <point x="1794" y="1155"/>
      <point x="1752" y="1097"/>
      <point x="1678" y="1021"/>
      <point x="1623" y="984" type="qcurve" smooth="yes"/>
      <point x="1530" y="918"/>
      <point x="1487" y="890"/>
      <point x="1451" y="873" type="qcurve" smooth="yes"/>
      <point x="1405" y="850"/>
      <point x="1365" y="783"/>
      <point x="1339" y="686" type="qcurve" smooth="yes"/>
      <point x="1247" y="300"/>
      <point x="1394" y="113"/>
      <point x="1671" y="267"/>
      <point x="1747" y="411" type="qcurve" smooth="yes"/>
      <point x="1767" y="449"/>
      <point x="1796" y="453" type="qcurve" smooth="yes"/>
      <point x="1820" y="457"/>
      <point x="1823" y="430" type="qcurve" smooth="yes"/>
      <point x="1825" y="414"/>
      <point x="1792" y="341"/>
      <point x="1774" y="320" type="qcurve" smooth="yes"/>
      <point x="1762" y="307"/>
      <point x="1718" y="251" type="qcurve" smooth="yes"/>
      <point x="1630" y="137"/>
      <point x="1405" y="50"/>
      <point x="1294" y="87" type="qcurve" smooth="yes"/>
      <point x="1182" y="124"/>
      <point x="1092" y="377"/>
      <point x="1120" y="580" type="qcurve" smooth="yes"/>
      <point x="1135" y="689"/>
      <point x="1119" y="719"/>
      <point x="1057" y="699" type="qcurve" smooth="yes"/>
      <point x="988" y="678"/>
      <point x="937" y="672" type="qcurve" smooth="yes"/>
      <point x="854" y="659"/>
      <point x="854" y="626" type="qcurve" smooth="yes"/>
      <point x="854" y="612"/>
      <point x="755" y="361"/>
      <point x="733" y="320" type="qcurve" smooth="yes"/>
      <point x="701" y="260"/>
      <point x="571" y="129"/>
      <point x="517" y="103" type="qcurve" smooth="yes"/>
      <point x="462" y="76"/>
      <point x="271" y="73"/>
      <point x="220" y="99" type="qcurve" smooth="yes"/>
      <point x="101" y="159"/>
      <point x="9" y="399"/>
      <point x="66" y="504" type="qcurve" smooth="yes"/>
      <point x="94" y="556"/>
      <point x="178" y="635"/>
      <point x="212" y="641" type="qcurve" smooth="yes"/>
      <point x="240" y="645"/>
      <point x="290" y="660" type="qcurve" smooth="yes"/>
      <point x="342" y="675"/>
      <point x="584" y="696" type="qcurve" smooth="yes"/>
      <point x="614" y="698"/>
      <point x="637" y="700"/>
      <point x="671" y="716"/>
      <point x="679" y="727"/>
      <point x="700" y="773"/>
      <point x="710" y="812"/>
      <point x="722" y="859" type="qcurve" smooth="yes"/>
      <point x="750" y="965"/>
      <point x="783" y="1066"/>
      <point x="825" y="1174" type="qcurve" smooth="yes"/>
      <point x="838" y="1206"/>
      <point x="851" y="1242"/>
      <point x="858" y="1274"/>
      <point x="856" y="1288"/>
      <point x="842" y="1298"/>
      <point x="823" y="1300"/>
      <point x="805" y="1299" type="qcurve" smooth="yes"/>
      <point x="464" y="1293"/>
      <point x="334" y="1186" type="qcurve" smooth="yes"/>
      <point x="267" y="1130"/>
      <point x="229" y="990"/>
      <point x="295" y="877"/>
      <point x="370" y="858" type="qcurve" smooth="yes"/>
      <point x="409" y="848"/>
      <point x="422" y="808"/>
      <point x="394" y="785" type="qcurve" smooth="yes"/>
      <point x="372" y="768"/>
      <point x="327" y="767"/>
      <point x="283" y="784" type="qcurve" smooth="yes"/>
      <point x="195" y="817"/>
      <point x="89" y="977"/>
      <point x="93" y="1160"/>
      <point x="152" y="1224" type="qcurve" smooth="yes"/>
      <point x="229" y="1305"/>
      <point x="477" y="1365"/>
      <point x="752" y="1367" type="qcurve" smooth="yes"/>
      <point x="930" y="1368"/>
      <point x="963" y="1376" type="qcurve" smooth="yes"/>
      <point x="996" y="1384"/>
      <point x="1027" y="1415" type="qcurve" smooth="yes"/>
      <point x="1031" y="1419"/>
      <point x="1047" y="1436" type="qcurve" smooth="yes"/>
      <point x="1059" y="1449"/>
    </contour>
  </outline>
</glyph>
<glyph name="J" format="2">
  <advance width="1420"/>
  <unicode hex="004A"/>
  <outline>
    <contour>
      <point x="1242" y="1486" type="qcurve" smooth="yes"/>
      <point x="1297" y="1499"/>
      <point x="1385" y="1470"/>
      <point x="1385" y="1440" type="qcurve" smooth="yes"/>
      <point x="1385" y="1403"/>
      <point x="1320" y="1361"/>
      <point x="1272" y="1368" type="qcurve" smooth="yes"/>
      <point x="1208" y="1376"/>
      <point x="1134" y="1287"/>
      <point x="1085" y="1145" type="qcurve" smooth="yes"/>
      <point x="1054" y="1056"/>
      <point x="967" y="779"/>
      <point x="967" y="771" type="qcurve" smooth="yes"/>
      <point x="967" y="759"/>
      <point x="896" y="521"/>
      <point x="860" y="404" type="qcurve" smooth="yes"/>
      <point x="824" y="288" type="line" smooth="yes"/>
      <point x="792" y="182"/>
      <point x="662" y="-62"/>
      <point x="605" y="-121" type="qcurve" smooth="yes"/>
      <point x="535" y="-194"/>
      <point x="358" y="-260"/>
      <point x="201" y="-240"/>
      <point x="72" y="-137"/>
      <point x="47" y="-52" type="qcurve" smooth="yes"/>
      <point x="20" y="40"/>
      <point x="81" y="212"/>
      <point x="232" y="317"/>
      <point x="331" y="318" type="qcurve" smooth="yes"/>
      <point x="415" y="318"/>
      <point x="513" y="206"/>
      <point x="513" y="110" type="qcurve" smooth="yes"/>
      <point x="513" y="44"/>
      <point x="464" y="-15" type="qcurve" smooth="yes"/>
      <point x="422" y="-66"/>
      <point x="389" y="-56" type="qcurve" smooth="yes"/>
      <point x="378" y="-53"/>
      <point x="371" y="-41" type="qcurve" smooth="yes"/>
      <point x="364" y="-29"/>
      <point x="374" y="-1"/>
      <point x="404" y="49" type="qcurve" smooth="yes"/>
      <point x="427" y="94"/>
      <point x="420" y="176"/>
      <point x="359" y="222"/>
      <point x="319" y="207" type="qcurve" smooth="yes"/>
      <point x="231" y="173"/>
      <point x="171" y="-14"/>
      <point x="254" y="-161"/>
      <point x="343" y="-144" type="qcurve" smooth="yes"/>
      <point x="417" y="-130"/>
      <point x="537" y="26"/>
      <point x="657" y="346"/>
      <point x="731" y="625" type="qcurve" smooth="yes"/>
      <point x="760" y="735"/>
      <point x="911" y="1183"/>
      <point x="969" y="1297" type="qcurve" smooth="yes"/>
      <point x="980" y="1319"/>
      <point x="983" y="1342"/>
      <point x="959" y="1352"/>
      <point x="912" y="1347"/>
      <point x="866" y="1339" type="qcurve" smooth="yes"/>
      <point x="699" y="1308"/>
      <point x="513" y="1197"/>
      <point x="464" y="1098" type="qcurve" smooth="yes"/>
      <point x="426" y="1022"/>
      <point x="458" y="916"/>
      <point x="532" y="878" type="qcurve" smooth="yes"/>
      <point x="562" y="862"/>
      <point x="533" y="807"/>
      <point x="496" y="807" type="qcurve" smooth="yes"/>
      <point x="490" y="807"/>
      <point x="483" y="808" type="qcurve" smooth="yes"/>
      <point x="361" y="832"/>
      <point x="264" y="1042"/>
      <point x="318" y="1163" type="qcurve" smooth="yes"/>
      <point x="359" y="1255"/>
      <point x="652" y="1394"/>
      <point x="836" y="1410" type="qcurve" smooth="yes"/>
      <point x="1001" y="1423"/>
      <point x="1105" y="1440"/>
      <point x="1147" y="1456" type="qcurve" smooth="yes"/>
      <point x="1212" y="1480"/>
    </contour>
  </outline>
</glyph>
<glyph name="K" format="2">
  <advance width="1917"/>
  <unicode hex="004B"/>
  <outline>
    <contour>
      <point x="1299" y="1259" type="qcurve" smooth="yes"/>
      <point x="1308" y="1273"/>
      <point x="1384" y="1344"/>
      <point x="1489" y="1428"/>
      <point x="1616" y="1491"/>
      <point x="1664" y="1491" type="qcurve" smooth="yes"/>
      <point x="1743" y="1491"/>
      <point x="1882" y="1373"/>
      <point x="1882" y="1305" type="qcurve" smooth="yes"/>
      <point x="1882" y="1255"/>
      <point x="1846" y="1242"/>
      <point x="1807" y="1278" type="qcurve" smooth="yes"/>
      <point x="1757" y="1322"/>
      <point x="1650" y="1307"/>
      <point x="1580" y="1271"/>
      <point x="1577" y="1265" type="qcurve" smooth="yes"/>
      <point x="1568" y="1256"/>
      <point x="1512" y="1217"/>
      <point x="1507" y="1212" type="qcurve" smooth="yes"/>
      <point x="1466" y="1178" type="line" smooth="yes"/>
      <point x="1425" y="1145"/>
      <point x="1315" y="1052"/>
      <point x="1202" y="953"/>
      <point x="1124" y="875"/>
      <point x="1124" y="865" type="qcurve" smooth="yes"/>
      <point x="1124" y="853"/>
      <point x="1163" y="816" type="qcurve" smooth="yes"/>
      <point x="1239" y="742"/>
      <point x="1257" y="521"/>
      <point x="1201" y="354" type="qcurve" smooth="yes"/>
      <point x="1164" y="246"/>
      <point x="1160" y="142"/>
      <point x="1190" y="110" type="qcurve" smooth="yes"/>
      <point x="1238" y="58"/>
      <point x="1424" y="172"/>
      <point x="1514" y="307" type="qcurve" smooth="yes"/>
      <point x="1564" y="382"/>
      <point x="1601" y="422"/>
      <point x="1616" y="416" type="qcurve" smooth="yes"/>
      <point x="1639" y="403"/>
      <point x="1615" y="318"/>
      <point x="1522" y="185"/>
      <point x="1458" y="120" type="qcurve" smooth="yes"/>
      <point x="1342" y="2"/>
      <point x="1071" y="-15"/>
      <point x="1013" y="91" type="qcurve" smooth="yes"/>
      <point x="991" y="130"/>
      <point x="1004" y="317"/>
      <point x="1036" y="441" type="qcurve" smooth="yes"/>
      <point x="1082" y="619"/>
      <point x="1050" y="803"/>
      <point x="975" y="803" type="qcurve" smooth="yes"/>
      <point x="945" y="803"/>
      <point x="910" y="770"/>
      <point x="883" y="688"/>
      <point x="857" y="589"/>
      <point x="795" y="416"/>
      <point x="752" y="328" type="qcurve" smooth="yes"/>
      <point x="657" y="135"/>
      <point x="460" y="-6"/>
      <point x="286" y="-8" type="qcurve" smooth="yes"/>
      <point x="257" y="-8"/>
      <point x="220" y="4"/>
      <point x="186" y="24" type="qcurve" smooth="yes"/>
      <point x="93" y="79"/>
      <point x="31" y="194"/>
      <point x="36" y="301" type="qcurve" smooth="yes"/>
      <point x="41" y="417"/>
      <point x="127" y="516"/>
      <point x="256" y="554" type="qcurve" smooth="yes"/>
      <point x="295" y="566"/>
      <point x="324" y="564"/>
      <point x="369" y="547" type="qcurve" smooth="yes"/>
      <point x="456" y="514"/>
      <point x="521" y="427"/>
      <point x="522" y="343" type="qcurve" smooth="yes"/>
      <point x="522" y="238"/>
      <point x="424" y="187" type="qcurve" smooth="yes"/>
      <point x="376" y="163"/>
      <point x="349" y="213"/>
      <point x="387" y="255" type="qcurve" smooth="yes"/>
      <point x="415" y="286"/>
      <point x="417" y="377"/>
      <point x="369" y="445"/>
      <point x="331" y="445" type="qcurve" smooth="yes"/>
      <point x="289" y="445"/>
      <point x="207" y="364"/>
      <point x="167" y="250"/>
      <point x="182" y="206" type="qcurve" smooth="yes"/>
      <point x="200" y="151"/>
      <point x="295" y="98"/>
      <point x="399" y="107"/>
      <point x="497" y="177"/>
      <point x="519" y="235" type="qcurve" smooth="yes"/>
      <point x="530" y="263"/>
      <point x="572" y="339"/>
      <point x="627" y="485" type="qcurve" smooth="yes"/>
      <point x="655" y="558"/>
      <point x="695" y="707"/>
      <point x="721" y="821"/>
      <point x="806" y="1060"/>
      <point x="876" y="1220" type="qcurve" smooth="yes"/>
      <point x="902" y="1278"/>
      <point x="882" y="1295"/>
      <point x="814" y="1272" type="qcurve" smooth="yes"/>
      <point x="759" y="1253"/>
      <point x="675" y="1232" type="qcurve" smooth="yes"/>
      <point x="529" y="1195"/>
      <point x="303" y="1050"/>
      <point x="239" y="907"/>
      <point x="291" y="850" type="qcurve"/>
      <point x="343" y="805"/>
      <point x="365" y="781"/>
      <point x="365" y="768" type="qcurve" smooth="yes"/>
      <point x="365" y="737"/>
      <point x="289" y="724"/>
      <point x="189" y="762"/>
      <point x="159" y="798" type="qcurve" smooth="yes"/>
      <point x="99" y="868"/>
      <point x="124" y="1053"/>
      <point x="204" y="1128" type="qcurve" smooth="yes"/>
      <point x="255" y="1176"/>
      <point x="567" y="1298"/>
      <point x="676" y="1312" type="qcurve" smooth="yes"/>
      <point x="699" y="1315"/>
      <point x="886" y="1352"/>
      <point x="914" y="1352" type="qcurve" smooth="yes"/>
      <point x="935" y="1352"/>
      <point x="965" y="1365"/>
      <point x="989" y="1386" type="qcurve" smooth="yes"/>
      <point x="1042" y="1432"/>
      <point x="1153" y="1473"/>
      <point x="1184" y="1457" type="qcurve" smooth="yes"/>
      <point x="1211" y="1443"/>
      <point x="1272" y="1353"/>
      <point x="1272" y="1329" type="qcurve" smooth="yes"/>
      <point x="1272" y="1276"/>
      <point x="1194" y="1249"/>
      <point x="1150" y="1286" type="qcurve" smooth="yes"/>
      <point x="1101" y="1327"/>
      <point x="1062" y="1291"/>
      <point x="1019" y="1161" type="qcurve" smooth="yes"/>
      <point x="943" y="928"/>
      <point x="987" y="917" type="qcurve" smooth="yes"/>
      <point x="990" y="916"/>
      <point x="993" y="916" type="qcurve" smooth="yes"/>
      <point x="1012" y="916"/>
      <point x="1086" y="994"/>
      <point x="1172" y="1103"/>
      <point x="1185" y="1116" type="qcurve" smooth="yes"/>
      <point x="1186" y="1117"/>
      <point x="1297" y="1256"/>
    </contour>
  </outline>
</glyph>
<glyph name="L" format="2">
  <advance width="1577"/>
  <unicode hex="004C"/>
  <outline>
    <contour>
      <point x="317" y="459" type="qcurve"/>
      <point x="291" y="472"/>
      <point x="204" y="463"/>
      <point x="122" y="422"/>
      <point x="122" y="401" type="qcurve" smooth="yes"/>
      <point x="122" y="383"/>
      <point x="169" y="348"/>
      <point x="195" y="348" type="qcurve" smooth="yes"/>
      <point x="229" y="348"/>
      <point x="305" y="393"/>
      <point x="332" y="442"/>
    </contour>
    <contour>
      <point x="1314" y="1432" type="qcurve" smooth="yes"/>
      <point x="1319" y="1450"/>
      <point x="1322" y="1489"/>
      <point x="1314" y="1533"/>
      <point x="1289" y="1562"/>
      <point x="1243" y="1576"/>
      <point x="1207" y="1567" type="qcurve" smooth="yes"/>
      <point x="1149" y="1553"/>
      <point x="1068" y="1474"/>
      <point x="1028" y="1394" type="qcurve" smooth="yes"/>
      <point x="995" y="1326"/>
      <point x="941" y="1172"/>
      <point x="946" y="1159" type="qcurve" smooth="yes"/>
      <point x="957" y="1129"/>
      <point x="1127" y="1223"/>
      <point x="1299" y="1382"/>
    </contour>
    <contour>
      <point x="1142" y="1639" type="qcurve" smooth="yes"/>
      <point x="1257" y="1661"/>
      <point x="1399" y="1583"/>
      <point x="1399" y="1498" type="qcurve" smooth="yes"/>
      <point x="1399" y="1377"/>
      <point x="1148" y="1134"/>
      <point x="933" y="1045" type="qcurve" smooth="yes"/>
      <point x="909" y="1035"/>
      <point x="869" y="959"/>
      <point x="837" y="862" type="qcurve" smooth="yes"/>
      <point x="809" y="779"/>
      <point x="712" y="587"/>
      <point x="674" y="540" type="qcurve" smooth="yes"/>
      <point x="647" y="506"/>
      <point x="624" y="474"/>
      <point x="607" y="444"/>
      <point x="619" y="427"/>
      <point x="638" y="413"/>
      <point x="661" y="401" type="qcurve" smooth="yes"/>
      <point x="668" y="398"/>
      <point x="806" y="317"/>
      <point x="937" y="240"/>
      <point x="938" y="239" type="qcurve" smooth="yes"/>
      <point x="1037" y="163"/>
      <point x="1319" y="101"/>
      <point x="1393" y="139" type="qcurve" smooth="yes"/>
      <point x="1418" y="152"/>
      <point x="1482" y="215"/>
      <point x="1482" y="227" type="qcurve" smooth="yes"/>
      <point x="1482" y="240"/>
      <point x="1505" y="246" type="qcurve" smooth="yes"/>
      <point x="1536" y="255"/>
      <point x="1542" y="232" type="qcurve" smooth="yes"/>
      <point x="1547" y="209"/>
      <point x="1515" y="160" type="qcurve" smooth="yes"/>
      <point x="1435" y="38"/>
      <point x="1180" y="-22"/>
      <point x="1050" y="51" type="qcurve" smooth="yes"/>
      <point x="826" y="176"/>
      <point x="795" y="205" type="qcurve" smooth="yes"/>
      <point x="769" y="228"/>
      <point x="739" y="245" type="qcurve" smooth="yes"/>
      <point x="712" y="260"/>
      <point x="621" y="320" type="qcurve" smooth="yes"/>
      <point x="555" y="364"/>
      <point x="538" y="369" type="qcurve" smooth="yes"/>
      <point x="512" y="377"/>
      <point x="462" y="354" type="qcurve" smooth="yes"/>
      <point x="454" y="350"/>
      <point x="399" y="322" type="qcurve" smooth="yes"/>
      <point x="269" y="257"/>
      <point x="88" y="262"/>
      <point x="51" y="331" type="qcurve" smooth="yes"/>
      <point x="35" y="361"/>
      <point x="35" y="420"/>
      <point x="64" y="468"/>
      <point x="113" y="508"/>
      <point x="183" y="532"/>
      <point x="261" y="542"/>
      <point x="351" y="532"/>
      <point x="394" y="517" type="qcurve" smooth="yes"/>
      <point x="428" y="505"/>
      <point x="466" y="513"/>
      <point x="490" y="536" type="qcurve" smooth="yes"/>
      <point x="524" y="570"/>
      <point x="680" y="906"/>
      <point x="680" y="947" type="qcurve" smooth="yes"/>
      <point x="680" y="963"/>
      <point x="672" y="964" type="qcurve" smooth="yes"/>
      <point x="661" y="967"/>
      <point x="578" y="949" type="qcurve" smooth="yes"/>
      <point x="480" y="928"/>
      <point x="275" y="991"/>
      <point x="137" y="1131"/>
      <point x="132" y="1213" type="qcurve" smooth="yes"/>
      <point x="127" y="1291"/>
      <point x="218" y="1445"/>
      <point x="363" y="1532"/>
      <point x="431" y="1519" type="qcurve" smooth="yes"/>
      <point x="465" y="1513"/>
      <point x="491" y="1477"/>
      <point x="468" y="1432"/>
      <point x="434" y="1414" type="qcurve" smooth="yes"/>
      <point x="355" y="1371"/>
      <point x="274" y="1240"/>
      <point x="293" y="1110"/>
      <point x="353" y="1069" type="qcurve" smooth="yes"/>
      <point x="404" y="1034"/>
      <point x="577" y="1013"/>
      <point x="720" y="1048"/>
      <point x="733" y="1086" type="qcurve" smooth="yes"/>
      <point x="773" y="1213"/>
      <point x="918" y="1502"/>
      <point x="962" y="1544" type="qcurve" smooth="yes"/>
      <point x="990" y="1570"/>
      <point x="1107" y="1632"/>
    </contour>
  </outline>
</glyph>
<glyph name="N" format="2">
  <advance width="1969"/>
  <unicode hex="004E"/>
  <outline>
    <contour>
      <point x="409" y="447" type="qcurve" smooth="yes"/>
      <point x="364" y="468"/>
      <point x="270" y="434"/>
      <point x="213" y="352"/>
      <point x="191" y="247"/>
      <point x="218" y="197" type="qcurve" smooth="yes"/>
      <point x="250" y="134"/>
      <point x="365" y="99"/>
      <point x="489" y="161"/>
      <point x="534" y="232" type="qcurve" smooth="yes"/>
      <point x="566" y="283"/>
      <point x="548" y="289" type="qcurve" smooth="yes"/>
      <point x="528" y="296"/>
      <point x="479" y="248" type="qcurve" smooth="yes"/>
      <point x="416" y="186"/>
      <point x="389" y="218" type="qcurve" smooth="yes"/>
      <point x="381" y="228"/>
      <point x="395" y="283"/>
      <point x="406" y="283" type="qcurve" smooth="yes"/>
      <point x="414" y="283"/>
      <point x="450" y="361"/>
      <point x="450" y="377" type="qcurve" smooth="yes"/>
      <point x="450" y="400"/>
      <point x="427" y="440"/>
    </contour>
    <contour>
      <point x="1838" y="1512" type="qcurve" smooth="yes"/>
      <point x="1871" y="1534"/>
      <point x="1934" y="1503"/>
      <point x="1934" y="1465" type="qcurve" smooth="yes"/>
      <point x="1934" y="1444"/>
      <point x="1903" y="1417"/>
      <point x="1864" y="1404" type="qcurve" smooth="yes"/>
      <point x="1835" y="1394"/>
      <point x="1776" y="1342"/>
      <point x="1717" y="1252"/>
      <point x="1666" y="1166"/>
      <point x="1608" y="1030"/>
      <point x="1569" y="938"/>
      <point x="1513" y="783"/>
      <point x="1488" y="711"/>
      <point x="1463" y="639" type="qcurve" smooth="yes"/>
      <point x="1394" y="433"/>
      <point x="1249" y="83"/>
      <point x="1222" y="53" type="qcurve" smooth="yes"/>
      <point x="1190" y="21"/>
      <point x="1127" y="35"/>
      <point x="1108" y="79" type="qcurve" smooth="yes"/>
      <point x="1097" y="107"/>
      <point x="1095" y="367"/>
      <point x="1105" y="522" type="qcurve" smooth="yes"/>
      <point x="1124" y="803"/>
      <point x="1134" y="1195" type="qcurve" smooth="yes"/>
      <point x="1136" y="1242"/>
      <point x="1125" y="1245" type="qcurve" smooth="yes"/>
      <point x="1114" y="1249"/>
      <point x="1030" y="1079"/>
      <point x="990" y="972" type="qcurve" smooth="yes"/>
      <point x="875" y="663"/>
      <point x="749" y="361"/>
      <point x="650" y="190"/>
      <point x="581" y="115" type="qcurve" smooth="yes"/>
      <point x="520" y="48"/>
      <point x="313" y="-15"/>
      <point x="243" y="12" type="qcurve" smooth="yes"/>
      <point x="36" y="91"/>
      <point x="35" y="287" type="qcurve" smooth="yes"/>
      <point x="35" y="486"/>
      <point x="224" y="548" type="qcurve" smooth="yes"/>
      <point x="373" y="595"/>
      <point x="555" y="492"/>
      <point x="562" y="355" type="qcurve" smooth="yes"/>
      <point x="566" y="284"/>
      <point x="581" y="283" type="qcurve" smooth="yes"/>
      <point x="595" y="283"/>
      <point x="628" y="340" type="qcurve" smooth="yes"/>
      <point x="652" y="380"/>
      <point x="696" y="466" type="qcurve" smooth="yes"/>
      <point x="784" y="636"/>
      <point x="948" y="1077"/>
      <point x="1020" y="1216" type="qcurve" smooth="yes"/>
      <point x="1073" y="1318"/>
      <point x="1064" y="1327" type="qcurve" smooth="yes"/>
      <point x="1056" y="1335"/>
      <point x="903" y="1309"/>
      <point x="746" y="1274"/>
      <point x="741" y="1274" type="qcurve" smooth="yes"/>
      <point x="683" y="1274"/>
      <point x="407" y="1149"/>
      <point x="347" y="1096" type="qcurve" smooth="yes"/>
      <point x="272" y="1029"/>
      <point x="235" y="882"/>
      <point x="284" y="851" type="qcurve" smooth="yes"/>
      <point x="345" y="813"/>
      <point x="366" y="782"/>
      <point x="345" y="761" type="qcurve" smooth="yes"/>
      <point x="321" y="735"/>
      <point x="242" y="743"/>
      <point x="165" y="782"/>
      <point x="102" y="859"/>
      <point x="93" y="901" type="qcurve" smooth="yes"/>
      <point x="63" y="1039"/>
      <point x="337" y="1264"/>
      <point x="603" y="1321" type="qcurve" smooth="yes"/>
      <point x="723" y="1349"/>
      <point x="960" y="1391"/>
      <point x="1087" y="1417"/>
      <point x="1134" y="1437" type="qcurve" smooth="yes"/>
      <point x="1185" y="1458"/>
      <point x="1265" y="1454"/>
      <point x="1276" y="1431" type="qcurve" smooth="yes"/>
      <point x="1298" y="1385"/>
      <point x="1306" y="875"/>
      <point x="1295" y="487"/>
      <point x="1305" y="445" type="qcurve"/>
      <point x="1316" y="437"/>
      <point x="1340" y="480"/>
      <point x="1372" y="583"/>
      <point x="1407" y="705"/>
      <point x="1467" y="885"/>
      <point x="1499" y="965" type="qcurve" smooth="yes"/>
      <point x="1672" y="1398"/>
    </contour>
  </outline>
</glyph>
<glyph name="O" format="2">
  <advance width="1220"/>
  <unicode hex="004F"/>
  <outline>
    <contour>
      <point x="913" y="1374" type="qcurve" smooth="yes"/>
      <point x="794" y="1447"/>
      <point x="491" y="1254"/>
      <point x="377" y="1032" type="qcurve" smooth="yes"/>
      <point x="232" y="748"/>
      <point x="197" y="250"/>
      <point x="418" y="4"/>
      <point x="619" y="64" type="qcurve" smooth="yes"/>
      <point x="684" y="83"/>
      <point x="841" y="213"/>
      <point x="887" y="285" type="qcurve" smooth="yes"/>
      <point x="1086" y="602"/>
      <point x="1102" y="903" type="qcurve" smooth="yes"/>
      <point x="1111" y="1068"/>
      <point x="1077" y="1054" type="qcurve" smooth="yes"/>
      <point x="1065" y="1048"/>
      <point x="1048" y="1019" type="qcurve" smooth="yes"/>
      <point x="956" y="864"/>
      <point x="808" y="753"/>
      <point x="710" y="764" type="qcurve" smooth="yes"/>
      <point x="620" y="774"/>
      <point x="519" y="860"/>
      <point x="502" y="975"/>
      <point x="534" y="1105"/>
      <point x="606" y="1214"/>
      <point x="701" y="1285"/>
      <point x="745" y="1285" type="qcurve" smooth="yes"/>
      <point x="774" y="1285"/>
      <point x="776" y="1270" type="qcurve" smooth="yes"/>
      <point x="778" y="1249"/>
      <point x="722" y="1128" type="qcurve" smooth="yes"/>
      <point x="667" y="1011"/>
      <point x="649" y="918"/>
      <point x="674" y="888" type="qcurve" smooth="yes"/>
      <point x="694" y="864"/>
      <point x="761" y="856"/>
      <point x="834" y="885"/>
      <point x="906" y="939"/>
      <point x="966" y="1020"/>
      <point x="981" y="1064" type="qcurve" smooth="yes"/>
      <point x="1013" y="1156"/>
      <point x="973" y="1337"/>
    </contour>
    <contour>
      <point x="732" y="1483" type="qcurve" smooth="yes"/>
      <point x="791" y="1491"/>
      <point x="821" y="1491"/>
      <point x="858" y="1481" type="qcurve" smooth="yes"/>
      <point x="961" y="1453"/>
      <point x="1069" y="1328"/>
      <point x="1082" y="1221" type="qcurve" smooth="yes"/>
      <point x="1095" y="1119"/>
      <point x="1128" y="1119" type="qcurve" smooth="yes"/>
      <point x="1178" y="1119"/>
      <point x="1186" y="1001" type="qcurve" smooth="yes"/>
      <point x="1195" y="844"/>
      <point x="1128" y="623" type="qcurve" smooth="yes"/>
      <point x="1038" y="328"/>
      <point x="872" y="150" type="qcurve" smooth="yes"/>
      <point x="771" y="42"/>
      <point x="653" y="-4" type="qcurve" smooth="yes"/>
      <point x="594" y="-27"/>
      <point x="379" y="-24"/>
      <point x="316" y="1" type="qcurve" smooth="yes"/>
      <point x="208" y="43"/>
      <point x="68" y="253"/>
      <point x="23" y="524"/>
      <point x="74" y="845"/>
      <point x="150" y="993" type="qcurve" smooth="yes"/>
      <point x="375" y="1432"/>
    </contour>
  </outline>
</glyph>
<glyph name="P" format="2">
  <advance width="1708"/>
  <unicode hex="0050"/>
  <outline>
    <contour>
      <point x="1426" y="1297" type="qcurve" smooth="yes"/>
      <point x="1395" y="1314"/>
      <point x="1347" y="1323"/>
      <point x="1295" y="1303"/>
      <point x="1247" y="1255"/>
      <point x="1185" y="1161"/>
      <point x="1119" y="1037"/>
      <point x="1074" y="944" type="qcurve" smooth="yes"/>
      <point x="1044" y="882"/>
      <point x="1014" y="818"/>
      <point x="991" y="753"/>
      <point x="987" y="727"/>
      <point x="997" y="695"/>
      <point x="1017" y="680"/>
      <point x="1036" y="667" type="qcurve" smooth="yes"/>
      <point x="1089" y="632"/>
      <point x="1231" y="648"/>
      <point x="1295" y="696" type="qcurve" smooth="yes"/>
      <point x="1346" y="735"/>
      <point x="1389" y="784"/>
      <point x="1415" y="835" type="qcurve" smooth="yes"/>
      <point x="1502" y="1006"/>
      <point x="1508" y="1253"/>
    </contour>
    <contour>
      <point x="1417" y="1490" type="qcurve" smooth="yes"/>
      <point x="1444" y="1506"/>
      <point x="1505" y="1482"/>
      <point x="1527" y="1428"/>
      <point x="1515" y="1398" type="qcurve" smooth="yes"/>
      <point x="1500" y="1370"/>
      <point x="1506" y="1342"/>
      <point x="1531" y="1323" type="qcurve" smooth="yes"/>
      <point x="1617" y="1257"/>
      <point x="1687" y="1066"/>
      <point x="1662" y="966" type="qcurve" smooth="yes"/>
      <point x="1648" y="913"/>
      <point x="1569" y="755"/>
      <point x="1541" y="726" type="qcurve" smooth="yes"/>
      <point x="1434" y="613"/>
      <point x="1117" y="536"/>
      <point x="1001" y="594" type="qcurve" smooth="yes"/>
      <point x="965" y="612"/>
      <point x="955" y="610" type="qcurve" smooth="yes"/>
      <point x="936" y="607"/>
      <point x="906" y="549" type="qcurve" smooth="yes"/>
      <point x="892" y="521"/>
      <point x="834" y="398" type="qcurve" smooth="yes"/>
      <point x="746" y="209"/>
      <point x="541" y="23"/>
      <point x="402" y="6" type="qcurve" smooth="yes"/>
      <point x="324" y="-4"/>
      <point x="257" y="11"/>
      <point x="193" y="50" type="qcurve" smooth="yes"/>
      <point x="83" y="119"/>
      <point x="15" y="311"/>
      <point x="65" y="411" type="qcurve" smooth="yes"/>
      <point x="94" y="468"/>
      <point x="205" y="541"/>
      <point x="329" y="557"/>
      <point x="447" y="533"/>
      <point x="533" y="453"/>
      <point x="543" y="395" type="qcurve" smooth="yes"/>
      <point x="554" y="334"/>
      <point x="528" y="259"/>
      <point x="484" y="227" type="qcurve" smooth="yes"/>
      <point x="422" y="181"/>
      <point x="388" y="191" type="qcurve" smooth="yes"/>
      <point x="361" y="198"/>
      <point x="386" y="236" type="qcurve" smooth="yes"/>
      <point x="391" y="244"/>
      <point x="399" y="253" type="qcurve" smooth="yes"/>
      <point x="439" y="298"/>
      <point x="441" y="395"/>
      <point x="373" y="446"/>
      <point x="320" y="432" type="qcurve" smooth="yes"/>
      <point x="284" y="422"/>
      <point x="228" y="357"/>
      <point x="203" y="279"/>
      <point x="211" y="195"/>
      <point x="235" y="168" type="qcurve" smooth="yes"/>
      <point x="311" y="82"/>
      <point x="501" y="148"/>
      <point x="585" y="290" type="qcurve" smooth="yes"/>
      <point x="620" y="349"/>
      <point x="729" y="565"/>
      <point x="736" y="589" type="qcurve" smooth="yes"/>
      <point x="743" y="616"/>
      <point x="912" y="966"/>
      <point x="935" y="1001" type="qcurve" smooth="yes"/>
      <point x="1075" y="1226"/>
      <point x="1120" y="1279" type="qcurve" smooth="yes"/>
      <point x="1159" y="1324"/>
      <point x="1123" y="1331" type="qcurve" smooth="yes"/>
      <point x="1088" y="1339"/>
      <point x="960" y="1318" type="qcurve" smooth="yes"/>
      <point x="490" y="1244"/>
      <point x="385" y="1024" type="qcurve" smooth="yes"/>
      <point x="365" y="983"/>
      <point x="393" y="889"/>
      <point x="434" y="858" type="qcurve" smooth="yes"/>
      <point x="471" y="830"/>
      <point x="451" y="810" type="qcurve" smooth="yes"/>
      <point x="429" y="788"/>
      <point x="378" y="801" type="qcurve" smooth="yes"/>
      <point x="363" y="806"/>
      <point x="348" y="813" type="qcurve" smooth="yes"/>
      <point x="261" y="857"/>
      <point x="209" y="1007"/>
      <point x="289" y="1174"/>
      <point x="385" y="1241" type="qcurve" smooth="yes"/>
      <point x="486" y="1312"/>
      <point x="937" y="1402"/>
      <point x="1134" y="1392" type="qcurve" smooth="yes"/>
      <point x="1215" y="1388"/>
      <point x="1285" y="1412"/>
    </contour>
  </outline>
</glyph>
<glyph name="Q" format="2">
  <advance width="1325"/>
  <unicode hex="0051"/>
  <outline>
    <contour>
      <point x="733" y="1475" type="qcurve" smooth="yes"/>
      <point x="881" y="1509"/>
      <point x="1115" y="1435"/>
      <point x="1164" y="1339" type="qcurve" smooth="yes"/>
      <point x="1193" y="1285"/>
      <point x="1171" y="1120"/>
      <point x="1104" y="959"/>
      <point x="989" y="817"/>
      <point x="925" y="786" type="qcurve" smooth="yes"/>
      <point x="875" y="762"/>
      <point x="692" y="759"/>
      <point x="648" y="782" type="qcurve" smooth="yes"/>
      <point x="586" y="815"/>
      <point x="531" y="947"/>
      <point x="548" y="1092"/>
      <point x="636" y="1236"/>
      <point x="707" y="1279" type="qcurve" smooth="yes"/>
      <point x="754" y="1307"/>
      <point x="799" y="1287" type="qcurve" smooth="yes"/>
      <point x="833" y="1272"/>
      <point x="827" y="1245" type="qcurve" smooth="yes"/>
      <point x="824" y="1230"/>
      <point x="805" y="1216" type="qcurve" smooth="yes"/>
      <point x="740" y="1168"/>
      <point x="659" y="967"/>
      <point x="685" y="918" type="qcurve" smooth="yes"/>
      <point x="721" y="851"/>
      <point x="866" y="846"/>
      <point x="1017" y="963"/>
      <point x="1062" y="1060" type="qcurve" smooth="yes"/>
      <point x="1087" y="1115"/>
      <point x="1094" y="1283"/>
      <point x="1074" y="1323" type="qcurve" smooth="yes"/>
      <point x="1045" y="1380"/>
      <point x="894" y="1425"/>
      <point x="820" y="1399" type="qcurve" smooth="yes"/>
      <point x="621" y="1328"/>
      <point x="520" y="1177" type="qcurve" smooth="yes"/>
      <point x="328" y="889"/>
      <point x="239" y="339"/>
      <point x="362" y="193" type="qcurve" smooth="yes"/>
      <point x="405" y="141"/>
      <point x="642" y="76"/>
      <point x="692" y="102" type="qcurve" smooth="yes"/>
      <point x="759" y="136"/>
      <point x="946" y="313"/>
      <point x="980" y="374" type="qcurve" smooth="yes"/>
      <point x="983" y="380"/>
      <point x="995" y="392" type="qcurve" smooth="yes"/>
      <point x="1002" y="397"/>
      <point x="1125" y="644"/>
      <point x="1143" y="688" type="qcurve" smooth="yes"/>
      <point x="1205" y="850"/>
      <point x="1208" y="1024" type="qcurve" smooth="yes"/>
      <point x="1209" y="1110"/>
      <point x="1220" y="1150"/>
      <point x="1243" y="1150" type="qcurve" smooth="yes"/>
      <point x="1296" y="1150"/>
      <point x="1289" y="1015" type="qcurve" smooth="yes"/>
      <point x="1279" y="849"/>
      <point x="1197" y="632" type="qcurve" smooth="yes"/>
      <point x="1169" y="560"/>
      <point x="1137" y="496" type="qcurve" smooth="yes"/>
      <point x="987" y="194"/>
      <point x="765" y="69" type="qcurve" smooth="yes"/>
      <point x="743" y="56"/>
      <point x="721" y="42"/>
      <point x="710" y="25"/>
      <point x="714" y="15"/>
      <point x="739" y="-3"/>
      <point x="773" y="-19"/>
      <point x="805" y="-33" type="qcurve" smooth="yes"/>
      <point x="920" y="-85"/>
      <point x="1039" y="-86"/>
      <point x="1092" y="-34" type="qcurve" smooth="yes"/>
      <point x="1160" y="30"/>
      <point x="1182" y="22" type="qcurve" smooth="yes"/>
      <point x="1212" y="11"/>
      <point x="1166" y="-50" type="qcurve" smooth="yes"/>
      <point x="1144" y="-81"/>
      <point x="1097" y="-133" type="qcurve" smooth="yes"/>
      <point x="1020" y="-218"/>
      <point x="735" y="-169"/>
      <point x="536" y="-35" type="qcurve" smooth="yes"/>
      <point x="385" y="67"/>
      <point x="209" y="109"/>
      <point x="114" y="65" type="qcurve" smooth="yes"/>
      <point x="84" y="51"/>
      <point x="56" y="43"/>
      <point x="43" y="51"/>
      <point x="39" y="65" type="qcurve" smooth="yes"/>
      <point x="31" y="97"/>
      <point x="51" y="133"/>
      <point x="92" y="143"/>
      <point x="137" y="155"/>
      <point x="170" y="167"/>
      <point x="176" y="209"/>
      <point x="157" y="244" type="qcurve" smooth="yes"/>
      <point x="142" y="272"/>
      <point x="117" y="389" type="qcurve" smooth="yes"/>
      <point x="91" y="506"/>
      <point x="109" y="746"/>
      <point x="173" y="970"/>
      <point x="291" y="1173"/>
      <point x="440" y="1335"/>
      <point x="630" y="1451"/>
    </contour>
  </outline>
</glyph>
<glyph name="U" format="2">
  <advance width="1621"/>
  <unicode hex="0055"/>
  <outline>
    <contour>
      <point x="1479" y="1393" type="qcurve" smooth="yes"/>
      <point x="1521" y="1419"/>
      <point x="1534" y="1422"/>
      <point x="1554" y="1412" type="qcurve" smooth="yes"/>
      <point x="1589" y="1396"/>
      <point x="1581" y="1331"/>
      <point x="1541" y="1314" type="qcurve" smooth="yes"/>
      <point x="1505" y="1297"/>
      <point x="1441" y="1212"/>
      <point x="1395" y="1116" type="qcurve" smooth="yes"/>
      <point x="1311" y="943"/>
      <point x="1201" y="612"/>
      <point x="1158" y="373" type="qcurve" smooth="yes"/>
      <point x="1148" y="316"/>
      <point x="1151" y="135"/>
      <point x="1163" y="112" type="qcurve" smooth="yes"/>
      <point x="1208" y="25"/>
      <point x="1310" y="130" type="qcurve" smooth="yes"/>
      <point x="1369" y="191"/>
      <point x="1439" y="310" type="qcurve" smooth="yes"/>
      <point x="1463" y="351"/>
      <point x="1485" y="373"/>
      <point x="1499" y="371" type="qcurve" smooth="yes"/>
      <point x="1541" y="366"/>
      <point x="1508" y="284" type="qcurve" smooth="yes"/>
      <point x="1470" y="191"/>
      <point x="1385" y="101" type="qcurve" smooth="yes"/>
      <point x="1355" y="71"/>
      <point x="1326" y="48" type="qcurve" smooth="yes"/>
      <point x="1183" y="-61"/>
      <point x="977" y="44"/>
      <point x="961" y="234" type="qcurve" smooth="yes"/>
      <point x="955" y="299"/>
      <point x="943" y="299" type="qcurve" smooth="yes"/>
      <point x="930" y="299"/>
      <point x="880" y="218" type="qcurve" smooth="yes"/>
      <point x="875" y="211"/>
      <point x="869" y="201" type="qcurve" smooth="yes"/>
      <point x="838" y="150"/>
      <point x="780" y="76"/>
      <point x="744" y="43"/>
      <point x="716" y="25"/>
      <point x="704" y="20"/>
      <point x="704" y="18" type="qcurve" smooth="yes"/>
      <point x="704" y="7"/>
      <point x="619" y="-22"/>
      <point x="587" y="-22" type="qcurve" smooth="yes"/>
      <point x="446" y="-21"/>
      <point x="347" y="193"/>
      <point x="398" y="386" type="qcurve" smooth="yes"/>
      <point x="457" y="608"/>
      <point x="534" y="807" type="qcurve" smooth="yes"/>
      <point x="610" y="1001"/>
      <point x="604" y="1214"/>
      <point x="521" y="1256" type="qcurve" smooth="yes"/>
      <point x="453" y="1289"/>
      <point x="279" y="1216"/>
      <point x="155" y="1051"/>
      <point x="155" y="964" type="qcurve" smooth="yes"/>
      <point x="155" y="926"/>
      <point x="205" y="864"/>
      <point x="277" y="833"/>
      <point x="363" y="837"/>
      <point x="396" y="861" type="qcurve" smooth="yes"/>
      <point x="430" y="886"/>
      <point x="467" y="841"/>
      <point x="437" y="811" type="qcurve" smooth="yes"/>
      <point x="403" y="777"/>
      <point x="284" y="756"/>
      <point x="169" y="777"/>
      <point x="73" y="839"/>
      <point x="61" y="882" type="qcurve" smooth="yes"/>
      <point x="35" y="970"/>
      <point x="35" y="1028"/>
      <point x="61" y="1080" type="qcurve" smooth="yes"/>
      <point x="92" y="1145"/>
      <point x="108" y="1163" type="qcurve" smooth="yes"/>
      <point x="234" y="1318"/>
      <point x="556" y="1378"/>
      <point x="669" y="1268" type="qcurve" smooth="yes"/>
      <point x="720" y="1219"/>
      <point x="767" y="1129"/>
      <point x="770" y="991"/>
      <point x="728" y="817"/>
      <point x="681" y="676" type="qcurve" smooth="yes"/>
      <point x="594" y="413"/>
      <point x="544" y="162"/>
      <point x="569" y="112" type="qcurve" smooth="yes"/>
      <point x="602" y="49"/>
      <point x="682" y="104" type="qcurve" smooth="yes"/>
      <point x="756" y="156"/>
      <point x="837" y="290" type="qcurve" smooth="yes"/>
      <point x="880" y="362"/>
      <point x="1004" y="611"/>
      <point x="1022" y="663" type="qcurve" smooth="yes"/>
      <point x="1043" y="720"/>
      <point x="1148" y="936"/>
      <point x="1167" y="982" type="qcurve" smooth="yes"/>
      <point x="1226" y="1115"/>
      <point x="1401" y="1347"/>
    </contour>
  </outline>
</glyph>
<glyph name="V" format="2">
  <advance width="1603"/>
  <unicode hex="0056"/>
  <outline>
    <contour>
      <point x="1467" y="1512" type="qcurve" smooth="yes"/>
      <point x="1507" y="1543"/>
      <point x="1568" y="1517"/>
      <point x="1568" y="1469" type="qcurve" smooth="yes"/>
      <point x="1568" y="1392"/>
      <point x="1517" y="1392" type="qcurve" smooth="yes"/>
      <point x="1423" y="1392"/>
      <point x="1193" y="1085"/>
      <point x="1112" y="852" type="qcurve"/>
      <point x="1103" y="828" type="line" smooth="yes"/>
      <point x="1094" y="803"/>
      <point x="1067" y="731"/>
      <point x="1039" y="652"/>
      <point x="1012" y="578"/>
      <point x="1006" y="558" type="qcurve" smooth="yes"/>
      <point x="892" y="223"/>
      <point x="754" y="74" type="qcurve" smooth="yes"/>
      <point x="699" y="14"/>
      <point x="552" y="-9"/>
      <point x="439" y="66"/>
      <point x="430" y="139" type="qcurve" smooth="yes"/>
      <point x="420" y="216"/>
      <point x="472" y="507"/>
      <point x="545" y="776"/>
      <point x="609" y="1046"/>
      <point x="609" y="1099" type="qcurve" smooth="yes"/>
      <point x="608" y="1238"/>
      <point x="467" y="1352"/>
      <point x="358" y="1301" type="qcurve" smooth="yes"/>
      <point x="299" y="1274"/>
      <point x="194" y="1150"/>
      <point x="147" y="1017"/>
      <point x="167" y="978" type="qcurve" smooth="yes"/>
      <point x="209" y="899"/>
      <point x="369" y="875"/>
      <point x="435" y="938" type="qcurve" smooth="yes"/>
      <point x="489" y="990"/>
      <point x="503" y="967" type="qcurve" smooth="yes"/>
      <point x="508" y="960"/>
      <point x="507" y="945" type="qcurve" smooth="yes"/>
      <point x="503" y="893"/>
      <point x="379" y="811"/>
      <point x="303" y="810" type="qcurve" smooth="yes"/>
      <point x="227" y="810"/>
      <point x="111" y="859"/>
      <point x="47" y="941"/>
      <point x="30" y="1048"/>
      <point x="62" y="1160"/>
      <point x="151" y="1274"/>
      <point x="220" y="1319" type="qcurve" smooth="yes"/>
      <point x="380" y="1424"/>
      <point x="670" y="1371"/>
      <point x="745" y="1223" type="qcurve" smooth="yes"/>
      <point x="787" y="1137"/>
      <point x="743" y="733"/>
      <point x="664" y="467" type="qcurve" smooth="yes"/>
      <point x="609" y="285"/>
      <point x="588" y="140"/>
      <point x="613" y="115" type="qcurve" smooth="yes"/>
      <point x="638" y="87"/>
      <point x="690" y="118"/>
      <point x="758" y="198" type="qcurve" smooth="yes"/>
      <point x="802" y="250"/>
      <point x="949" y="602"/>
      <point x="1042" y="864"/>
      <point x="1049" y="888" type="qcurve" smooth="yes"/>
      <point x="1134" y="1125"/>
      <point x="1313" y="1393"/>
    </contour>
  </outline>
</glyph>
<glyph name="W" format="2">
  <advance width="2205"/>
  <unicode hex="0057"/>
  <outline>
    <contour>
      <point x="2004" y="1518" type="qcurve" smooth="yes"/>
      <point x="2052" y="1548"/>
      <point x="2079" y="1553"/>
      <point x="2117" y="1539" type="qcurve" smooth="yes"/>
      <point x="2152" y="1527"/>
      <point x="2170" y="1505"/>
      <point x="2170" y="1475" type="qcurve" smooth="yes"/>
      <point x="2170" y="1440"/>
      <point x="2149" y="1422"/>
      <point x="2114" y="1427" type="qcurve" smooth="yes"/>
      <point x="2054" y="1436"/>
      <point x="1902" y="1332"/>
      <point x="1762" y="1140"/>
      <point x="1719" y="1027" type="qcurve" smooth="yes"/>
      <point x="1647" y="835"/>
      <point x="1598" y="682" type="qcurve" smooth="yes"/>
      <point x="1507" y="391"/>
      <point x="1344" y="84"/>
      <point x="1255" y="40" type="qcurve" smooth="yes"/>
      <point x="1115" y="-30"/>
      <point x="968" y="77"/>
      <point x="967" y="249" type="qcurve" smooth="yes"/>
      <point x="967" y="358"/>
      <point x="956" y="360" type="qcurve" smooth="yes"/>
      <point x="950" y="361"/>
      <point x="935" y="339" type="qcurve" smooth="yes"/>
      <point x="931" y="333"/>
      <point x="925" y="323" type="qcurve" smooth="yes"/>
      <point x="824" y="152"/>
      <point x="667" y="17"/>
      <point x="569" y="17" type="qcurve" smooth="yes"/>
      <point x="266" y="17"/>
      <point x="451" y="582" type="qcurve" smooth="yes"/>
      <point x="525" y="811"/>
      <point x="545" y="860" type="qcurve" smooth="yes"/>
      <point x="610" y="1025"/>
      <point x="624" y="1209"/>
      <point x="576" y="1270" type="qcurve" smooth="yes"/>
      <point x="539" y="1316"/>
      <point x="413" y="1319"/>
      <point x="289" y="1250"/>
      <point x="179" y="1119"/>
      <point x="158" y="1041" type="qcurve" smooth="yes"/>
      <point x="146" y="998"/>
      <point x="187" y="921"/>
      <point x="263" y="880"/>
      <point x="363" y="880"/>
      <point x="404" y="907" type="qcurve" smooth="yes"/>
      <point x="451" y="938"/>
      <point x="465" y="917" type="qcurve" smooth="yes"/>
      <point x="479" y="898"/>
      <point x="446" y="861" type="qcurve" smooth="yes"/>
      <point x="438" y="852"/>
      <point x="427" y="843" type="qcurve" smooth="yes"/>
      <point x="389" y="811"/>
      <point x="271" y="798"/>
      <point x="160" y="831"/>
      <point x="65" y="906"/>
      <point x="47" y="955" type="qcurve" smooth="yes"/>
      <point x="28" y="1008"/>
      <point x="52" y="1126"/>
      <point x="125" y="1230"/>
      <point x="231" y="1324"/>
      <point x="358" y="1379"/>
      <point x="491" y="1401"/>
      <point x="554" y="1381" type="qcurve" smooth="yes"/>
      <point x="690" y="1341"/>
      <point x="805" y="1110"/>
      <point x="763" y="962" type="qcurve"/>
      <point x="724" y="806"/>
      <point x="658" y="608" type="qcurve" smooth="yes"/>
      <point x="543" y="266"/>
      <point x="556" y="171" type="qcurve" smooth="yes"/>
      <point x="564" y="112"/>
      <point x="619" y="112" type="qcurve" smooth="yes"/>
      <point x="639" y="112"/>
      <point x="726" y="169"/>
      <point x="752" y="199" type="qcurve" smooth="yes"/>
      <point x="811" y="267"/>
      <point x="1006" y="642"/>
      <point x="1045" y="762" type="qcurve" smooth="yes"/>
      <point x="1075" y="853"/>
      <point x="1120" y="906"/>
      <point x="1165" y="906" type="qcurve" smooth="yes"/>
      <point x="1238" y="906"/>
      <point x="1271" y="794"/>
      <point x="1229" y="688" type="qcurve" smooth="yes"/>
      <point x="1208" y="635"/>
      <point x="1145" y="343"/>
      <point x="1128" y="224" type="qcurve" smooth="yes"/>
      <point x="1123" y="186"/>
      <point x="1142" y="113"/>
      <point x="1160" y="103" type="qcurve" smooth="yes"/>
      <point x="1182" y="92"/>
      <point x="1229" y="115"/>
      <point x="1275" y="159" type="qcurve" smooth="yes"/>
      <point x="1331" y="213"/>
      <point x="1438" y="429"/>
      <point x="1527" y="687"/>
      <point x="1613" y="949"/>
      <point x="1721" y="1214"/>
      <point x="1776" y="1298" type="qcurve" smooth="yes"/>
      <point x="1805" y="1342"/>
      <point x="1958" y="1491"/>
    </contour>
  </outline>
</glyph>
<glyph name="Y" format="2">
  <advance width="1638"/>
  <unicode hex="0059"/>
  <outline>
    <contour>
      <point x="35" y="1117" type="qcurve" smooth="yes"/>
      <point x="35" y="1194"/>
      <point x="110" y="1332"/>
      <point x="231" y="1427"/>
      <point x="386" y="1487"/>
      <point x="541" y="1497"/>
      <point x="691" y="1449"/>
      <point x="743" y="1396" type="qcurve" smooth="yes"/>
      <point x="809" y="1328"/>
      <point x="843" y="1177"/>
      <point x="787" y="952"/>
      <point x="705" y="760" type="qcurve" smooth="yes"/>
      <point x="622" y="565"/>
      <point x="653" y="537" type="qcurve" smooth="yes"/>
      <point x="672" y="519"/>
      <point x="736" y="552" type="qcurve" smooth="yes"/>
      <point x="791" y="580"/>
      <point x="882" y="690"/>
      <point x="1005" y="877" type="qcurve" smooth="yes"/>
      <point x="1007" y="880"/>
      <point x="1079" y="987"/>
      <point x="1142" y="1081"/>
      <point x="1142" y="1082" type="qcurve" smooth="yes"/>
      <point x="1258" y="1260"/>
      <point x="1474" y="1487"/>
      <point x="1528" y="1487" type="qcurve" smooth="yes"/>
      <point x="1570" y="1487"/>
      <point x="1594" y="1451" type="qcurve" smooth="yes"/>
      <point x="1615" y="1420"/>
      <point x="1594" y="1403" type="qcurve" smooth="yes"/>
      <point x="1588" y="1397"/>
      <point x="1578" y="1395" type="qcurve" smooth="yes"/>
      <point x="1524" y="1382"/>
      <point x="1462" y="1320"/>
      <point x="1423" y="1239" type="qcurve" smooth="yes"/>
      <point x="1345" y="1080"/>
      <point x="1270" y="786" type="qcurve"/>
      <point x="1186" y="482"/>
      <point x="1170" y="420" type="qcurve" smooth="yes"/>
      <point x="1136" y="286"/>
      <point x="996" y="-49"/>
      <point x="958" y="-88" type="qcurve" smooth="yes"/>
      <point x="947" y="-99"/>
      <point x="947" y="-108" type="qcurve" smooth="yes"/>
      <point x="947" y="-123"/>
      <point x="780" y="-276"/>
      <point x="746" y="-293" type="qcurve" smooth="yes"/>
      <point x="625" y="-352"/>
      <point x="385" y="-319"/>
      <point x="295" y="-231" type="qcurve" smooth="yes"/>
      <point x="239" y="-176"/>
      <point x="194" y="-40"/>
      <point x="219" y="86"/>
      <point x="291" y="194"/>
      <point x="421" y="259"/>
      <point x="500" y="259" type="qcurve" smooth="yes"/>
      <point x="552" y="259"/>
      <point x="600" y="234"/>
      <point x="579" y="196"/>
      <point x="536" y="177" type="qcurve" smooth="yes"/>
      <point x="428" y="131"/>
      <point x="329" y="-53"/>
      <point x="370" y="-132" type="qcurve" smooth="yes"/>
      <point x="425" y="-240"/>
      <point x="610" y="-268"/>
      <point x="697" y="-181" type="qcurve" smooth="yes"/>
      <point x="755" y="-123"/>
      <point x="903" y="162"/>
      <point x="938" y="285" type="qcurve" smooth="yes"/>
      <point x="942" y="297"/>
      <point x="968" y="387"/>
      <point x="1009" y="525"/>
      <point x="1026" y="581" type="qcurve" smooth="yes"/>
      <point x="1120" y="894"/>
      <point x="1098" y="894" type="qcurve" smooth="yes"/>
      <point x="1087" y="895"/>
      <point x="1034" y="799" type="qcurve" smooth="yes"/>
      <point x="978" y="695"/>
      <point x="877" y="557" type="qcurve" smooth="yes"/>
      <point x="843" y="511"/>
      <point x="655" y="398"/>
      <point x="611" y="398" type="qcurve" smooth="yes"/>
      <point x="548" y="398"/>
      <point x="458" y="491"/>
      <point x="458" y="556" type="qcurve" smooth="yes"/>
      <point x="458" y="589"/>
      <point x="539" y="830"/>
      <point x="584" y="934" type="qcurve" smooth="yes"/>
      <point x="663" y="1111"/>
      <point x="678" y="1310"/>
      <point x="616" y="1363" type="qcurve" smooth="yes"/>
      <point x="547" y="1422"/>
      <point x="315" y="1386"/>
      <point x="251" y="1306" type="qcurve" smooth="yes"/>
      <point x="230" y="1280"/>
      <point x="209" y="1254" type="qcurve" smooth="yes"/>
      <point x="154" y="1196"/>
      <point x="135" y="1068"/>
      <point x="208" y="976"/>
      <point x="279" y="969" type="qcurve" smooth="yes"/>
      <point x="333" y="963"/>
      <point x="381" y="975"/>
      <point x="409" y="1003" type="qcurve" smooth="yes"/>
      <point x="450" y="1044"/>
      <point x="492" y="1018"/>
      <point x="463" y="969" type="qcurve" smooth="yes"/>
      <point x="416" y="890"/>
      <point x="225" y="869"/>
      <point x="124" y="932" type="qcurve" smooth="yes"/>
      <point x="74" y="963"/>
      <point x="35" y="1044"/>
    </contour>
  </outline>
</glyph>
<glyph name="bracketleft" format="2">
  <advance width="959"/>
  <unicode hex="005B"/>
  <outline>
    <contour>
      <point x="671" y="1294" type="qcurve" smooth="yes"/>
      <point x="870" y="1312"/>
      <point x="904" y="1289" type="qcurve" smooth="yes"/>
      <point x="938" y="1265"/>
      <point x="916" y="1242" type="qcurve" smooth="yes"/>
      <point x="893" y="1216"/>
      <point x="844" y="1224" type="qcurve" smooth="yes"/>
      <point x="838" y="1225"/>
      <point x="832" y="1227" type="qcurve" smooth="yes"/>
      <point x="782" y="1240"/>
      <point x="711" y="1162"/>
      <point x="677" y="1056" type="qcurve" smooth="yes"/>
      <point x="668" y="1030"/>
      <point x="548" y="711"/>
      <point x="525" y="641" type="qcurve" smooth="yes"/>
      <point x="523" y="634"/>
      <point x="424" y="356"/>
      <point x="314" y="46"/>
      <point x="303" y="20" type="qcurve" smooth="yes"/>
      <point x="250" y="-109"/>
      <point x="243" y="-214"/>
      <point x="286" y="-218" type="qcurve" smooth="yes"/>
      <point x="329" y="-221"/>
      <point x="354" y="-233"/>
      <point x="352" y="-249" type="qcurve" smooth="yes"/>
      <point x="348" y="-275"/>
      <point x="284" y="-288"/>
      <point x="186" y="-281" type="qcurve" smooth="yes"/>
      <point x="148" y="-279"/>
      <point x="106" y="-276"/>
      <point x="63" y="-264"/>
      <point x="46" y="-254"/>
      <point x="33" y="-225"/>
      <point x="36" y="-199"/>
      <point x="49" y="-142"/>
      <point x="69" y="-89"/>
      <point x="86" y="-43" type="qcurve" smooth="yes"/>
      <point x="289" y="525"/>
      <point x="466" y="1009" type="qcurve" smooth="yes"/>
      <point x="537" y="1203"/>
      <point x="557" y="1238" type="qcurve" smooth="yes"/>
      <point x="580" y="1278"/>
      <point x="614" y="1287" type="qcurve" smooth="yes"/>
      <point x="627" y="1290"/>
    </contour>
  </outline>
</glyph>
<glyph name="bracketright" format="2">
  <advance width="994"/>
  <unicode hex="005D"/>
  <outline>
    <contour>
      <point x="698" y="1341" type="qcurve" smooth="yes"/>
      <point x="809" y="1351"/>
      <point x="887" y="1332" type="qcurve" smooth="yes"/>
      <point x="923" y="1323"/>
      <point x="955" y="1303"/>
      <point x="960" y="1254"/>
      <point x="937" y="1184"/>
      <point x="908" y="1118" type="qcurve" smooth="yes"/>
      <point x="880" y="1052"/>
      <point x="765" y="745"/>
      <point x="675" y="499"/>
      <point x="675" y="496" type="qcurve" smooth="yes"/>
      <point x="675" y="491"/>
      <point x="629" y="370"/>
      <point x="555" y="177"/>
      <point x="532" y="110" type="qcurve" smooth="yes"/>
      <point x="516" y="66"/>
      <point x="484" y="-24"/>
      <point x="459" y="-90"/>
      <point x="439" y="-141"/>
      <point x="434" y="-156" type="qcurve" smooth="yes"/>
      <point x="428" y="-170" type="line" smooth="yes"/>
      <point x="419" y="-194"/>
      <point x="412" y="-215"/>
      <point x="393" y="-245"/>
      <point x="387" y="-254"/>
      <point x="358" y="-270"/>
      <point x="343" y="-272"/>
      <point x="293" y="-279"/>
      <point x="260" y="-280"/>
      <point x="220" y="-282" type="qcurve" smooth="yes"/>
      <point x="99" y="-287"/>
      <point x="66" y="-274" type="qcurve" smooth="yes"/>
      <point x="24" y="-256"/>
      <point x="38" y="-237" type="qcurve" smooth="yes"/>
      <point x="54" y="-217"/>
      <point x="113" y="-217" type="qcurve" smooth="yes"/>
      <point x="178" y="-217"/>
      <point x="234" y="-182"/>
      <point x="254" y="-131" type="qcurve" smooth="yes"/>
      <point x="256" y="-127"/>
      <point x="496" y="547"/>
      <point x="498" y="553" type="qcurve" smooth="yes"/>
      <point x="508" y="578"/>
      <point x="645" y="953" type="qcurve" smooth="yes"/>
      <point x="730" y="1179"/>
      <point x="737" y="1225" type="qcurve" smooth="yes"/>
      <point x="742" y="1264"/>
      <point x="716" y="1272" type="qcurve" smooth="yes"/>
      <point x="704" y="1275"/>
      <point x="671" y="1275" type="qcurve" smooth="yes"/>
      <point x="613" y="1275"/>
      <point x="602" y="1290" type="qcurve" smooth="yes"/>
      <point x="583" y="1322"/>
      <point x="645" y="1334" type="qcurve" smooth="yes"/>
      <point x="666" y="1338"/>
    </contour>
  </outline>
</glyph>
<glyph name="a" format="2">
  <advance width="915"/>
  <unicode hex="0061"/>
  <outline>
    <contour>
      <point x="457" y="508" type="qcurve" smooth="yes"/>
      <point x="411" y="563"/>
      <point x="336" y="499" type="qcurve" smooth="yes"/>
      <point x="266" y="439"/>
      <point x="224" y="329" type="qcurve" smooth="yes"/>
      <point x="173" y="197"/>
      <point x="212" y="120" type="qcurve" smooth="yes"/>
      <point x="220" y="104"/>
      <point x="233" y="92" type="qcurve" smooth="yes"/>
      <point x="272" y="53"/>
      <point x="414" y="226"/>
      <point x="494" y="465"/>
    </contour>
    <contour>
      <point x="564" y="595" type="qcurve" smooth="yes"/>
      <point x="602" y="613"/>
      <point x="650" y="610"/>
      <point x="674" y="589" type="qcurve" smooth="yes"/>
      <point x="704" y="563"/>
      <point x="691" y="474"/>
      <point x="641" y="363" type="qcurve" smooth="yes"/>
      <point x="608" y="289"/>
      <point x="581" y="152"/>
      <point x="600" y="69"/>
      <point x="631" y="69" type="qcurve" smooth="yes"/>
      <point x="654" y="69"/>
      <point x="787" y="229"/>
      <point x="814" y="290" type="qcurve" smooth="yes"/>
      <point x="823" y="312"/>
      <point x="851" y="334"/>
      <point x="875" y="326"/>
      <point x="880" y="308" type="qcurve" smooth="yes"/>
      <point x="885" y="287"/>
      <point x="806" y="130"/>
      <point x="778" y="104" type="qcurve" smooth="yes"/>
      <point x="774" y="100"/>
      <point x="744" y="63" type="qcurve" smooth="yes"/>
      <point x="680" y="-18"/>
      <point x="501" y="-29"/>
      <point x="454" y="46" type="qcurve" smooth="yes"/>
      <point x="432" y="81"/>
      <point x="378" y="68"/>
      <point x="320" y="16" type="qcurve" smooth="yes"/>
      <point x="288" y="-13"/>
      <point x="209" y="-24"/>
      <point x="135" y="10"/>
      <point x="73" y="71"/>
      <point x="35" y="164"/>
      <point x="35" y="215" type="qcurve" smooth="yes"/>
      <point x="35" y="329"/>
      <point x="142" y="518"/>
      <point x="317" y="612"/>
      <point x="413" y="595" type="qcurve" smooth="yes"/>
      <point x="486" y="582"/>
      <point x="536" y="582"/>
    </contour>
  </outline>
</glyph>
<glyph name="b" format="2">
  <advance width="915"/>
  <unicode hex="0062"/>
  <outline>
    <contour>
      <point x="682" y="1202" type="qcurve" smooth="yes"/>
      <point x="658" y="1225"/>
      <point x="595" y="1193"/>
      <point x="522" y="1083"/>
      <point x="489" y="1002" type="qcurve" smooth="yes"/>
      <point x="382" y="731"/>
      <point x="392" y="684" type="qcurve" smooth="yes"/>
      <point x="395" y="669"/>
      <point x="409" y="669" type="qcurve" smooth="yes"/>
      <point x="422" y="669"/>
      <point x="535" y="805"/>
      <point x="651" y="985"/>
      <point x="717" y="1162"/>
    </contour>
    <contour>
      <point x="553" y="1270" type="qcurve" smooth="yes"/>
      <point x="611" y="1298"/>
      <point x="728" y="1283"/>
      <point x="757" y="1244" type="qcurve" smooth="yes"/>
      <point x="781" y="1213"/>
      <point x="763" y="1057"/>
      <point x="728" y="989" type="qcurve" smooth="yes"/>
      <point x="709" y="950"/>
      <point x="597" y="780"/>
      <point x="578" y="760" type="qcurve" smooth="yes"/>
      <point x="553" y="733"/>
      <point x="470" y="619"/>
      <point x="470" y="612" type="qcurve" smooth="yes"/>
      <point x="470" y="601"/>
      <point x="510" y="598" type="qcurve" smooth="yes"/>
      <point x="599" y="587"/>
      <point x="682" y="393"/>
      <point x="650" y="269" type="qcurve" smooth="yes"/>
      <point x="627" y="178"/>
      <point x="631" y="169" type="qcurve" smooth="yes"/>
      <point x="633" y="164"/>
      <point x="647" y="164" type="qcurve" smooth="yes"/>
      <point x="667" y="164"/>
      <point x="761" y="256"/>
      <point x="798" y="313" type="qcurve" smooth="yes"/>
      <point x="840" y="377"/>
      <point x="867" y="373" type="qcurve" smooth="yes"/>
      <point x="888" y="370"/>
      <point x="876" y="326" type="qcurve" smooth="yes"/>
      <point x="869" y="300"/>
      <point x="850" y="268" type="qcurve" smooth="yes"/>
      <point x="807" y="195"/>
      <point x="714" y="121"/>
      <point x="597" y="65" type="qcurve" smooth="yes"/>
      <point x="460" y="-1"/>
      <point x="346" y="-32"/>
      <point x="308" y="-14" type="qcurve" smooth="yes"/>
      <point x="266" y="6"/>
      <point x="260" y="43" type="qcurve" smooth="yes"/>
      <point x="255" y="75"/>
      <point x="283" y="82" type="qcurve" smooth="yes"/>
      <point x="294" y="85"/>
      <point x="309" y="81" type="qcurve" smooth="yes"/>
      <point x="345" y="72"/>
      <point x="430" y="166"/>
      <point x="488" y="320"/>
      <point x="488" y="393" type="qcurve" smooth="yes"/>
      <point x="488" y="440"/>
      <point x="469" y="478"/>
      <point x="447" y="478" type="qcurve" smooth="yes"/>
      <point x="377" y="478"/>
      <point x="247" y="275"/>
      <point x="225" y="130" type="qcurve" smooth="yes"/>
      <point x="214" y="59"/>
      <point x="204" y="27"/>
      <point x="189" y="10" type="qcurve" smooth="yes"/>
      <point x="178" y="-2"/>
      <point x="150" y="-10"/>
      <point x="119" y="-10" type="qcurve" smooth="yes"/>
      <point x="57" y="-10"/>
      <point x="26" y="48"/>
      <point x="49" y="122" type="qcurve" smooth="yes"/>
      <point x="77" y="218"/>
      <point x="129" y="425" type="qcurve" smooth="yes"/>
      <point x="202" y="711"/>
      <point x="326" y="1044"/>
      <point x="461" y="1227"/>
    </contour>
  </outline>
</glyph>
<glyph name="h" format="2">
  <advance width="933"/>
  <unicode hex="0068"/>
  <outline>
    <contour>
      <point x="678" y="1217" type="qcurve" smooth="yes"/>
      <point x="626" y="1253"/>
      <point x="467" y="979"/>
      <point x="374" y="671"/>
      <point x="403" y="671" type="qcurve" smooth="yes"/>
      <point x="420" y="671"/>
      <point x="554" y="824"/>
      <point x="604" y="902" type="qcurve" smooth="yes"/>
      <point x="664" y="994"/>
      <point x="711" y="1194"/>
    </contour>
    <contour>
      <point x="544" y="1273" type="qcurve" smooth="yes"/>
      <point x="580" y="1289"/>
      <point x="689" y="1290"/>
      <point x="721" y="1275" type="qcurve" smooth="yes"/>
      <point x="762" y="1256"/>
      <point x="785" y="1153"/>
      <point x="765" y="1084" type="qcurve" smooth="yes"/>
      <point x="748" y="1025"/>
      <point x="611" y="778"/>
      <point x="585" y="758" type="qcurve" smooth="yes"/>
      <point x="579" y="752"/>
      <point x="534" y="689"/>
      <point x="517" y="671" type="qcurve" smooth="yes"/>
      <point x="492" y="644"/>
      <point x="504" y="621"/>
      <point x="544" y="616" type="qcurve" smooth="yes"/>
      <point x="633" y="605"/>
      <point x="651" y="427"/>
      <point x="584" y="235" type="qcurve" smooth="yes"/>
      <point x="554" y="147"/>
      <point x="580" y="109" type="qcurve" smooth="yes"/>
      <point x="600" y="79"/>
      <point x="644" y="109" type="qcurve" smooth="yes"/>
      <point x="662" y="121"/>
      <point x="773" y="260"/>
      <point x="808" y="312" type="qcurve" smooth="yes"/>
      <point x="837" y="356"/>
      <point x="875" y="380"/>
      <point x="892" y="364" type="qcurve" smooth="yes"/>
      <point x="901" y="356"/>
      <point x="891" y="323"/>
      <point x="863" y="269" type="qcurve" smooth="yes"/>
      <point x="795" y="137"/>
      <point x="618" y="-9"/>
      <point x="466" y="10"/>
      <point x="430" y="102" type="qcurve" smooth="yes"/>
      <point x="416" y="136"/>
      <point x="430" y="291"/>
      <point x="455" y="375" type="qcurve" smooth="yes"/>
      <point x="487" y="487"/>
      <point x="474" y="501" type="qcurve" smooth="yes"/>
      <point x="464" y="511"/>
      <point x="412" y="478" type="qcurve" smooth="yes"/>
      <point x="336" y="428"/>
      <point x="270" y="326"/>
      <point x="241" y="212" type="qcurve" smooth="yes"/>
      <point x="206" y="81"/>
      <point x="160" y="1"/>
      <point x="117" y="1" type="qcurve" smooth="yes"/>
      <point x="50" y="1"/>
      <point x="26" y="102"/>
      <point x="64" y="227" type="qcurve" smooth="yes"/>
      <point x="80" y="277"/>
      <point x="131" y="471" type="qcurve" smooth="yes"/>
      <point x="177" y="644"/>
      <point x="299" y="980"/>
      <point x="356" y="1089" type="qcurve" smooth="yes"/>
      <point x="375" y="1127"/>
      <point x="508" y="1256"/>
    </contour>
  </outline>
</glyph>
<glyph name="i" format="2">
  <advance width="523"/>
  <unicode hex="0069"/>
  <outline>
    <contour>
      <point x="146" y="618" type="qcurve" smooth="yes"/>
      <point x="160" y="629"/>
      <point x="265" y="637"/>
      <point x="288" y="628" type="qcurve" smooth="yes"/>
      <point x="307" y="622"/>
      <point x="286" y="514"/>
      <point x="225" y="312" type="qcurve" smooth="yes"/>
      <point x="204" y="244"/>
      <point x="184" y="159"/>
      <point x="182" y="107"/>
      <point x="199" y="87"/>
      <point x="217" y="87" type="qcurve" smooth="yes"/>
      <point x="241" y="87"/>
      <point x="363" y="225"/>
      <point x="426" y="321" type="qcurve" smooth="yes"/>
      <point x="449" y="357"/>
      <point x="472" y="353" type="qcurve" smooth="yes"/>
      <point x="489" y="349"/>
      <point x="488" y="323" type="qcurve" smooth="yes"/>
      <point x="486" y="284"/>
      <point x="393" y="136"/>
      <point x="276" y="13"/>
      <point x="242" y="6" type="qcurve" smooth="yes"/>
      <point x="205" y="-2"/>
      <point x="121" y="3"/>
      <point x="102" y="13" type="qcurve" smooth="yes"/>
      <point x="47" y="42"/>
      <point x="26" y="259"/>
      <point x="66" y="390" type="qcurve" smooth="yes"/>
      <point x="73" y="412"/>
      <point x="91" y="471"/>
      <point x="109" y="533"/>
      <point x="112" y="542" type="qcurve" smooth="yes"/>
      <point x="130" y="604"/>
    </contour>
    <contour>
      <point x="228" y="831" type="qcurve" smooth="yes"/>
      <point x="257" y="839"/>
      <point x="265" y="836" type="qcurve" smooth="yes"/>
      <point x="279" y="832"/>
      <point x="284" y="832" type="qcurve" smooth="yes"/>
      <point x="298" y="832"/>
      <point x="328" y="787"/>
      <point x="328" y="766" type="qcurve" smooth="yes"/>
      <point x="328" y="685"/>
      <point x="262" y="685" type="qcurve" smooth="yes"/>
      <point x="219" y="685"/>
      <point x="170" y="747"/>
      <point x="188" y="819"/>
    </contour>
  </outline>
</glyph>
<glyph name="j" format="2">
  <advance width="1133"/>
  <unicode hex="006A"/>
  <outline>
    <contour>
      <point x="502" y="-157" type="qcurve" smooth="yes"/>
      <point x="496" y="-146"/>
      <point x="482" y="-146"/>
      <point x="415" y="-190"/>
      <point x="357" y="-231"/>
      <point x="355" y="-233" type="qcurve" smooth="yes"/>
      <point x="273" y="-288"/>
      <point x="114" y="-519"/>
      <point x="103" y="-598" type="qcurve" smooth="yes"/>
      <point x="95" y="-662"/>
      <point x="173" y="-741"/>
      <point x="218" y="-713" type="qcurve" smooth="yes"/>
      <point x="250" y="-693"/>
      <point x="250" y="-688" type="qcurve" smooth="yes"/>
      <point x="250" y="-685"/>
      <point x="269" y="-662"/>
      <point x="304" y="-621"/>
      <point x="343" y="-566"/>
      <point x="391" y="-476"/>
      <point x="411" y="-425" type="qcurve" smooth="yes"/>
      <point x="452" y="-322"/>
      <point x="505" y="-165"/>
    </contour>
    <contour>
      <point x="747" y="602" type="qcurve" smooth="yes"/>
      <point x="750" y="605"/>
      <point x="797" y="624"/>
      <point x="862" y="632"/>
      <point x="883" y="611" type="qcurve" smooth="yes"/>
      <point x="901" y="592"/>
      <point x="896" y="538"/>
      <point x="865" y="438" type="qcurve" smooth="yes"/>
      <point x="839" y="353"/>
      <point x="807" y="236"/>
      <point x="789" y="147"/>
      <point x="789" y="102"/>
      <point x="810" y="93"/>
      <point x="847" y="120"/>
      <point x="910" y="187"/>
      <point x="988" y="283"/>
      <point x="1043" y="354" type="qcurve" smooth="yes"/>
      <point x="1068" y="386"/>
      <point x="1107" y="362"/>
      <point x="1093" y="324" type="qcurve" smooth="yes"/>
      <point x="1068" y="254"/>
      <point x="918" y="84"/>
      <point x="817" y="14" type="qcurve" smooth="yes"/>
      <point x="754" y="-30"/>
      <point x="707" y="-94"/>
      <point x="690" y="-161" type="qcurve" smooth="yes"/>
      <point x="638" y="-362"/>
      <point x="432" y="-726"/>
      <point x="341" y="-775" type="qcurve" smooth="yes"/>
      <point x="278" y="-809"/>
      <point x="157" y="-811"/>
      <point x="73" y="-756"/>
      <point x="29" y="-649"/>
      <point x="38" y="-581" type="qcurve" smooth="yes"/>
      <point x="45" y="-533"/>
      <point x="113" y="-373"/>
      <point x="135" y="-355" type="qcurve" smooth="yes"/>
      <point x="141" y="-349"/>
      <point x="180" y="-293"/>
      <point x="238" y="-230"/>
      <point x="314" y="-178"/>
      <point x="320" y="-172" type="qcurve" smooth="yes"/>
      <point x="328" y="-161"/>
      <point x="435" y="-94"/>
      <point x="477" y="-72" type="qcurve" smooth="yes"/>
      <point x="529" y="-46"/>
      <point x="559" y="3"/>
      <point x="584" y="100" type="qcurve" smooth="yes"/>
      <point x="615" y="204" type="line" smooth="yes"/>
      <point x="646" y="308"/>
      <point x="707" y="515"/>
      <point x="707" y="519" type="qcurve" smooth="yes"/>
      <point x="707" y="526"/>
      <point x="740" y="594"/>
    </contour>
    <contour>
      <point x="834" y="837" type="qcurve" smooth="yes"/>
      <point x="861" y="850"/>
      <point x="921" y="833"/>
      <point x="957" y="788"/>
      <point x="969" y="734"/>
      <point x="948" y="711" type="qcurve" smooth="yes"/>
      <point x="923" y="683"/>
      <point x="857" y="676"/>
      <point x="811" y="711"/>
      <point x="787" y="770"/>
      <point x="805" y="808" type="qcurve" smooth="yes"/>
      <point x="815" y="830"/>
    </contour>
  </outline>
</glyph>
<glyph name="l" format="2">
  <advance width="758"/>
  <unicode hex="006C"/>
  <outline>
    <contour>
      <point x="639" y="1189" type="qcurve" smooth="yes"/>
      <point x="614" y="1235"/>
      <point x="554" y="1181" type="qcurve" smooth="yes"/>
      <point x="483" y="1116"/>
      <point x="427" y="977" type="qcurve" smooth="yes"/>
      <point x="423" y="967"/>
      <point x="419" y="956" type="qcurve" smooth="yes"/>
      <point x="315" y="677"/>
      <point x="329" y="649" type="qcurve" smooth="yes"/>
      <point x="332" y="644"/>
      <point x="337" y="644" type="qcurve" smooth="yes"/>
      <point x="354" y="644"/>
      <point x="377" y="664"/>
      <point x="419" y="713" type="qcurve" smooth="yes"/>
      <point x="471" y="773"/>
      <point x="479" y="781" type="qcurve" smooth="yes"/>
      <point x="556" y="862"/>
      <point x="665" y="1141"/>
    </contour>
    <contour>
      <point x="551" y="1291" type="qcurve" smooth="yes"/>
      <point x="599" y="1302"/>
      <point x="672" y="1283"/>
      <point x="714" y="1217"/>
      <point x="728" y="1129"/>
      <point x="704" y="1014"/>
      <point x="674" y="955" type="qcurve" smooth="yes"/>
      <point x="631" y="872"/>
      <point x="462" y="651"/>
      <point x="381" y="571" type="qcurve" smooth="yes"/>
      <point x="317" y="507"/>
      <point x="261" y="410"/>
      <point x="226" y="301" type="qcurve" smooth="yes"/>
      <point x="203" y="231"/>
      <point x="193" y="134"/>
      <point x="219" y="96"/>
      <point x="268" y="106"/>
      <point x="345" y="178"/>
      <point x="389" y="240" type="qcurve" smooth="yes"/>
      <point x="475" y="360"/>
      <point x="499" y="369" type="qcurve" smooth="yes"/>
      <point x="513" y="374"/>
      <point x="521" y="353" type="qcurve" smooth="yes"/>
      <point x="530" y="329"/>
      <point x="442" y="182"/>
      <point x="314" y="37"/>
      <point x="271" y="15" type="qcurve" smooth="yes"/>
      <point x="226" y="-8"/>
      <point x="114" y="16"/>
      <point x="83" y="56" type="qcurve" smooth="yes"/>
      <point x="41" y="111"/>
      <point x="32" y="273"/>
      <point x="95" y="544"/>
      <point x="173" y="778" type="qcurve" smooth="yes"/>
      <point x="254" y="1021"/>
      <point x="428" y="1256"/>
    </contour>
  </outline>
</glyph>
<glyph name="n" format="2">
  <advance width="924"/>
  <unicode hex="006E"/>
  <outline>
    <contour>
      <point x="474" y="661" type="qcurve" smooth="yes"/>
      <point x="540" y="690"/>
      <point x="672" y="600"/>
      <point x="672" y="527" type="qcurve" smooth="yes"/>
      <point x="672" y="499"/>
      <point x="623" y="310"/>
      <point x="588" y="145"/>
      <point x="601" y="129" type="qcurve" smooth="yes"/>
      <point x="652" y="70"/>
      <point x="776" y="259" type="qcurve" smooth="yes"/>
      <point x="827" y="336"/>
      <point x="851" y="368"/>
      <point x="861" y="368" type="qcurve" smooth="yes"/>
      <point x="910" y="368"/>
      <point x="874" y="286" type="qcurve" smooth="yes"/>
      <point x="835" y="199"/>
      <point x="748" y="110" type="qcurve" smooth="yes"/>
      <point x="672" y="31"/>
      <point x="617" y="19" type="qcurve" smooth="yes"/>
      <point x="505" y="-6"/>
      <point x="407" y="170"/>
      <point x="448" y="320" type="qcurve" smooth="yes"/>
      <point x="469" y="397"/>
      <point x="486" y="537"/>
      <point x="476" y="548" type="qcurve" smooth="yes"/>
      <point x="450" y="574"/>
      <point x="334" y="442"/>
      <point x="222" y="214"/>
      <point x="201" y="115" type="qcurve" smooth="yes"/>
      <point x="186" y="44"/>
      <point x="103" y="-15"/>
      <point x="34" y="38"/>
      <point x="35" y="109" type="qcurve" smooth="yes"/>
      <point x="37" y="163"/>
      <point x="154" y="632"/>
      <point x="171" y="652" type="qcurve" smooth="yes"/>
      <point x="194" y="679"/>
      <point x="310" y="648"/>
      <point x="324" y="611" type="qcurve" smooth="yes"/>
      <point x="338" y="578"/>
      <point x="367" y="580"/>
      <point x="406" y="613" type="qcurve" smooth="yes"/>
      <point x="449" y="650"/>
    </contour>
  </outline>
</glyph>
<glyph name="q" format="2">
  <advance width="898"/>
  <unicode hex="0071"/>
  <outline>
    <contour>
      <point x="509" y="-160" type="qcurve" smooth="yes"/>
      <point x="481" y="-128"/>
      <point x="432" y="-134"/>
      <point x="416" y="-171" type="qcurve" smooth="yes"/>
      <point x="370" y="-272"/>
      <point x="317" y="-615"/>
      <point x="340" y="-659" type="qcurve" smooth="yes"/>
      <point x="373" y="-722"/>
      <point x="429" y="-687" type="qcurve" smooth="yes"/>
      <point x="490" y="-649"/>
      <point x="533" y="-532" type="qcurve" smooth="yes"/>
      <point x="548" y="-490"/>
      <point x="557" y="-444" type="qcurve" smooth="yes"/>
      <point x="578" y="-345"/>
      <point x="556" y="-216"/>
    </contour>
    <contour>
      <point x="437" y="559" type="qcurve" smooth="yes"/>
      <point x="386" y="598"/>
      <point x="266" y="477"/>
      <point x="219" y="340" type="qcurve" smooth="yes"/>
      <point x="183" y="232"/>
      <point x="209" y="164" type="qcurve" smooth="yes"/>
      <point x="230" y="108"/>
      <point x="280" y="125" type="qcurve" smooth="yes"/>
      <point x="282" y="126"/>
      <point x="284" y="127" type="qcurve" smooth="yes"/>
      <point x="313" y="139"/>
      <point x="376" y="226"/>
      <point x="425" y="339"/>
      <point x="457" y="453"/>
      <point x="456" y="544"/>
    </contour>
    <contour>
      <point x="537" y="630" type="qcurve" smooth="yes"/>
      <point x="582" y="646"/>
      <point x="623" y="643"/>
      <point x="645" y="621" type="qcurve" smooth="yes"/>
      <point x="670" y="595"/>
      <point x="659" y="510"/>
      <point x="618" y="417" type="qcurve" smooth="yes"/>
      <point x="598" y="372"/>
      <point x="469" y="-9"/>
      <point x="469" y="-23" type="qcurve" smooth="yes"/>
      <point x="469" y="-50"/>
      <point x="501" y="-45" type="qcurve" smooth="yes"/>
      <point x="532" y="-41"/>
      <point x="565" y="-10" type="qcurve" smooth="yes"/>
      <point x="617" y="39"/>
      <point x="705" y="165"/>
      <point x="755" y="263"/>
      <point x="798" y="345"/>
      <point x="833" y="375"/>
      <point x="851" y="361" type="qcurve" smooth="yes"/>
      <point x="868" y="349"/>
      <point x="852" y="291"/>
      <point x="806" y="202" type="qcurve" smooth="yes"/>
      <point x="762" y="115"/>
      <point x="697" y="24"/>
      <point x="639" y="-34" type="qcurve" smooth="yes"/>
      <point x="590" y="-82"/>
      <point x="575" y="-119"/>
      <point x="591" y="-152" type="qcurve" smooth="yes"/>
      <point x="622" y="-218"/>
      <point x="637" y="-277"/>
      <point x="637" y="-336" type="qcurve" smooth="yes"/>
      <point x="638" y="-528"/>
      <point x="544" y="-666" type="qcurve" smooth="yes"/>
      <point x="471" y="-773"/>
      <point x="378" y="-790" type="qcurve" smooth="yes"/>
      <point x="275" y="-809"/>
      <point x="204" y="-703" type="qcurve" smooth="yes"/>
      <point x="198" y="-694"/>
      <point x="192" y="-684" type="qcurve" smooth="yes"/>
      <point x="146" y="-601"/>
      <point x="171" y="-338"/>
      <point x="248" y="-99" type="qcurve" smooth="yes"/>
      <point x="279" y="-4"/>
      <point x="272" y="32"/>
      <point x="225" y="32" type="qcurve" smooth="yes"/>
      <point x="184" y="32"/>
      <point x="140" y="51"/>
      <point x="110" y="83" type="qcurve" smooth="yes"/>
      <point x="41" y="156"/>
      <point x="29" y="339"/>
      <point x="86" y="461" type="qcurve" smooth="yes"/>
      <point x="128" y="554"/>
      <point x="325" y="649"/>
      <point x="432" y="627" type="qcurve" smooth="yes"/>
      <point x="475" y="619"/>
      <point x="508" y="620"/>
    </contour>
  </outline>
</glyph>
<glyph name="r" format="2">
  <advance width="645"/>
  <unicode hex="0072"/>
  <outline>
    <contour>
      <point x="110" y="733" type="qcurve" smooth="yes"/>
      <point x="144" y="750"/>
      <point x="200" y="709"/>
      <point x="200" y="667" type="qcurve" smooth="yes"/>
      <point x="200" y="635"/>
      <point x="227" y="615"/>
      <point x="268" y="615" type="qcurve" smooth="yes"/>
      <point x="367" y="615"/>
      <point x="433" y="482"/>
      <point x="392" y="367" type="qcurve" smooth="yes"/>
      <point x="341" y="227"/>
      <point x="317" y="110"/>
      <point x="335" y="96" type="qcurve" smooth="yes"/>
      <point x="359" y="76"/>
      <point x="469" y="195"/>
      <point x="536" y="313" type="qcurve" smooth="yes"/>
      <point x="572" y="377"/>
      <point x="599" y="350" type="qcurve" smooth="yes"/>
      <point x="611" y="339"/>
      <point x="610" y="333" type="qcurve" smooth="yes"/>
      <point x="609" y="322"/>
      <point x="564" y="235" type="qcurve" smooth="yes"/>
      <point x="445" y="0"/>
      <point x="301" y="0" type="qcurve" smooth="yes"/>
      <point x="198" y="0"/>
      <point x="161" y="194"/>
      <point x="226" y="398" type="qcurve" smooth="yes"/>
      <point x="248" y="468"/>
      <point x="253" y="516"/>
      <point x="240" y="528" type="qcurve" smooth="yes"/>
      <point x="225" y="540"/>
      <point x="187" y="506"/>
      <point x="150" y="439"/>
      <point x="112" y="368"/>
      <point x="73" y="316"/>
      <point x="58" y="316" type="qcurve" smooth="yes"/>
      <point x="17" y="316"/>
      <point x="53" y="402" type="qcurve" smooth="yes"/>
      <point x="58" y="412"/>
      <point x="63" y="424" type="qcurve" smooth="yes"/>
      <point x="97" y="497"/>
      <point x="115" y="574"/>
      <point x="104" y="608" type="qcurve" smooth="yes"/>
      <point x="89" y="655"/>
      <point x="92" y="724"/>
    </contour>
  </outline>
</glyph>
<glyph name="t" format="2">
  <advance width="610"/>
  <unicode hex="0074"/>
  <outline>
    <contour>
      <point x="353" y="1072" type="qcurve" smooth="yes"/>
      <point x="363" y="1087"/>
      <point x="396" y="1094"/>
      <point x="404" y="1082" type="qcurve" smooth="yes"/>
      <point x="410" y="1074"/>
      <point x="443" y="1074" type="qcurve" smooth="yes"/>
      <point x="481" y="1074"/>
      <point x="498" y="1042"/>
      <point x="487" y="993" type="qcurve" smooth="yes"/>
      <point x="471" y="919"/>
      <point x="477" y="861"/>
      <point x="503" y="859" type="qcurve" smooth="yes"/>
      <point x="545" y="855"/>
      <point x="548" y="825" type="qcurve" smooth="yes"/>
      <point x="551" y="797"/>
      <point x="520" y="780" type="qcurve" smooth="yes"/>
      <point x="501" y="770"/>
      <point x="478" y="770" type="qcurve" smooth="yes"/>
      <point x="436" y="770"/>
      <point x="392" y="676"/>
      <point x="314" y="419" type="qcurve" smooth="yes"/>
      <point x="232" y="148"/>
      <point x="251" y="92" type="qcurve" smooth="yes"/>
      <point x="260" y="62"/>
      <point x="297" y="71" type="qcurve" smooth="yes"/>
      <point x="313" y="75"/>
      <point x="435" y="188"/>
      <point x="435" y="199" type="qcurve" smooth="yes"/>
      <point x="435" y="200"/>
      <point x="495" y="285"/>
      <point x="496" y="286" type="qcurve" smooth="yes"/>
      <point x="525" y="330"/>
      <point x="554" y="356"/>
      <point x="566" y="349" type="qcurve" smooth="yes"/>
      <point x="602" y="327"/>
      <point x="500" y="173" type="qcurve" smooth="yes"/>
      <point x="448" y="95"/>
      <point x="329" y="-5"/>
      <point x="223" y="-30"/>
      <point x="134" y="1"/>
      <point x="83" y="106"/>
      <point x="84" y="185" type="qcurve" smooth="yes"/>
      <point x="85" y="259"/>
      <point x="104" y="346"/>
      <point x="152" y="493" type="qcurve" smooth="yes"/>
      <point x="238" y="756"/>
      <point x="231" y="775" type="qcurve" smooth="yes"/>
      <point x="227" y="788"/>
      <point x="145" y="788" type="qcurve" smooth="yes"/>
      <point x="83" y="788"/>
      <point x="35" y="804"/>
      <point x="35" y="826" type="qcurve" smooth="yes"/>
      <point x="35" y="845"/>
      <point x="80" y="857"/>
      <point x="148" y="857" type="qcurve" smooth="yes"/>
      <point x="224" y="857"/>
      <point x="273" y="875"/>
      <point x="285" y="906" type="qcurve" smooth="yes"/>
      <point x="338" y="1049"/>
    </contour>
  </outline>
</glyph>
<glyph name="v" format="2">
  <advance width="784"/>
  <unicode hex="0076"/>
  <outline>
    <contour>
      <point x="561" y="545" type="qcurve" smooth="yes"/>
      <point x="563" y="577"/>
      <point x="550" y="606"/>
      <point x="526" y="588"/>
      <point x="514" y="559" type="qcurve" smooth="yes"/>
      <point x="502" y="531"/>
      <point x="491" y="463"/>
      <point x="496" y="419"/>
      <point x="506" y="421" type="qcurve" smooth="yes"/>
      <point x="524" y="425"/>
      <point x="558" y="502"/>
    </contour>
    <contour>
      <point x="523" y="690" type="qcurve" smooth="yes"/>
      <point x="562" y="714"/>
      <point x="611" y="665" type="qcurve" smooth="yes"/>
      <point x="648" y="629"/>
      <point x="615" y="432"/>
      <point x="557" y="345" type="qcurve" smooth="yes"/>
      <point x="528" y="302"/>
      <point x="528" y="250"/>
      <point x="557" y="247" type="qcurve" smooth="yes"/>
      <point x="587" y="244"/>
      <point x="642" y="295"/>
      <point x="675" y="360"/>
      <point x="716" y="406"/>
      <point x="734" y="398" type="qcurve" smooth="yes"/>
      <point x="758" y="389"/>
      <point x="734" y="293"/>
      <point x="699" y="259" type="qcurve" smooth="yes"/>
      <point x="640" y="200"/>
      <point x="534" y="168"/>
      <point x="468" y="188" type="qcurve" smooth="yes"/>
      <point x="451" y="193"/>
      <point x="400" y="146"/>
      <point x="334" y="63" type="qcurve" smooth="yes"/>
      <point x="305" y="27"/>
      <point x="251" y="0"/>
      <point x="207" y="0" type="qcurve" smooth="yes"/>
      <point x="73" y="0"/>
      <point x="14" y="241"/>
      <point x="86" y="495" type="qcurve" smooth="yes"/>
      <point x="110" y="581"/>
      <point x="152" y="631"/>
      <point x="198" y="631" type="qcurve" smooth="yes"/>
      <point x="262" y="631"/>
      <point x="277" y="521"/>
      <point x="231" y="377" type="qcurve" smooth="yes"/>
      <point x="179" y="214"/>
      <point x="198" y="128" type="qcurve" smooth="yes"/>
      <point x="210" y="68"/>
      <point x="254" y="93" type="qcurve" smooth="yes"/>
      <point x="261" y="97"/>
      <point x="268" y="103" type="qcurve" smooth="yes"/>
      <point x="321" y="147"/>
      <point x="392" y="298"/>
      <point x="398" y="381" type="qcurve" smooth="yes"/>
      <point x="416" y="627"/>
    </contour>
  </outline>
</glyph>
<glyph name="w" format="2">
  <advance width="1168"/>
  <unicode hex="0077"/>
  <outline>
    <contour>
      <point x="929" y="581" type="qcurve" smooth="yes"/>
      <point x="925" y="597"/>
      <point x="896" y="609"/>
      <point x="871" y="595"/>
      <point x="871" y="578" type="qcurve" smooth="yes"/>
      <point x="871" y="570"/>
      <point x="862" y="502" type="qcurve" smooth="yes"/>
      <point x="850" y="422"/>
      <point x="871" y="422" type="qcurve" smooth="yes"/>
      <point x="876" y="421"/>
      <point x="882" y="424" type="qcurve" smooth="yes"/>
      <point x="900" y="432"/>
      <point x="936" y="552"/>
    </contour>
    <contour>
      <point x="869" y="684" type="qcurve" smooth="yes"/>
      <point x="906" y="709"/>
      <point x="994" y="666"/>
      <point x="1007" y="617" type="qcurve" smooth="yes"/>
      <point x="1017" y="576"/>
      <point x="961" y="413"/>
      <point x="914" y="348" type="qcurve" smooth="yes"/>
      <point x="868" y="283"/>
      <point x="907" y="263" type="qcurve" smooth="yes"/>
      <point x="935" y="247"/>
      <point x="1004" y="298"/>
      <point x="1053" y="369" type="qcurve" smooth="yes"/>
      <point x="1074" y="398"/>
      <point x="1114" y="420"/>
      <point x="1134" y="405"/>
      <point x="1129" y="360"/>
      <point x="1109" y="330" type="qcurve" smooth="yes"/>
      <point x="1002" y="167"/>
      <point x="889" y="191" type="qcurve" smooth="yes"/>
      <point x="844" y="201"/>
      <point x="814" y="192"/>
      <point x="797" y="164" type="qcurve" smooth="yes"/>
      <point x="744" y="72"/>
      <point x="647" y="0"/>
      <point x="576" y="0" type="qcurve" smooth="yes"/>
      <point x="521" y="0"/>
      <point x="470" y="38"/>
      <point x="449" y="94" type="qcurve" smooth="yes"/>
      <point x="436" y="131"/>
      <point x="417" y="158"/>
      <point x="405" y="158" type="qcurve" smooth="yes"/>
      <point x="396" y="158"/>
      <point x="315" y="78"/>
      <point x="315" y="69" type="qcurve" smooth="yes"/>
      <point x="315" y="56"/>
      <point x="241" y="27"/>
      <point x="203" y="24" type="qcurve" smooth="yes"/>
      <point x="162" y="21"/>
      <point x="139" y="28"/>
      <point x="114" y="50" type="qcurve" smooth="yes"/>
      <point x="53" y="105"/>
      <point x="24" y="318"/>
      <point x="62" y="442" type="qcurve" smooth="yes"/>
      <point x="74" y="477"/>
      <point x="93" y="543" type="qcurve" smooth="yes"/>
      <point x="113" y="610"/>
      <point x="149" y="651"/>
      <point x="192" y="655" type="qcurve" smooth="yes"/>
      <point x="240" y="659"/>
      <point x="282" y="607"/>
      <point x="269" y="495"/>
      <point x="236" y="410" type="qcurve" smooth="yes"/>
      <point x="187" y="285"/>
      <point x="203" y="189" type="qcurve" smooth="yes"/>
      <point x="214" y="123"/>
      <point x="251" y="123" type="qcurve" smooth="yes"/>
      <point x="274" y="124"/>
      <point x="301" y="152" type="qcurve" smooth="yes"/>
      <point x="402" y="255"/>
      <point x="471" y="491" type="qcurve" smooth="yes"/>
      <point x="500" y="592"/>
      <point x="544" y="648"/>
      <point x="594" y="648" type="qcurve" smooth="yes"/>
      <point x="661" y="648"/>
      <point x="664" y="530"/>
      <point x="610" y="335" type="qcurve" smooth="yes"/>
      <point x="585" y="232"/>
      <point x="596" y="148" type="qcurve" smooth="yes"/>
      <point x="605" y="83"/>
      <point x="636" y="88" type="qcurve" smooth="yes"/>
      <point x="672" y="94"/>
      <point x="729" y="193" type="qcurve" smooth="yes"/>
      <point x="758" y="243"/>
      <point x="767" y="289"/>
      <point x="767" y="381" type="qcurve" smooth="yes"/>
      <point x="767" y="518"/>
      <point x="810" y="645"/>
    </contour>
  </outline>
</glyph>
<glyph name="x" format="2">
  <advance width="854"/>
  <unicode hex="0078"/>
  <outline>
    <contour>
      <point x="625" y="637" type="qcurve" smooth="yes"/>
      <point x="659" y="681"/>
      <point x="674" y="691"/>
      <point x="693" y="682" type="qcurve" smooth="yes"/>
      <point x="740" y="658"/>
      <point x="662" y="569" type="qcurve" smooth="yes"/>
      <point x="636" y="539"/>
      <point x="543" y="421"/>
      <point x="520" y="400" type="qcurve" smooth="yes"/>
      <point x="494" y="375"/>
      <point x="479" y="292"/>
      <point x="485" y="205" type="qcurve" smooth="yes"/>
      <point x="490" y="131"/>
      <point x="502" y="95"/>
      <point x="519" y="95" type="qcurve" smooth="yes"/>
      <point x="538" y="95"/>
      <point x="674" y="230"/>
      <point x="715" y="289" type="qcurve" smooth="yes"/>
      <point x="763" y="359"/>
      <point x="788" y="388"/>
      <point x="800" y="388" type="qcurve" smooth="yes"/>
      <point x="827" y="388"/>
      <point x="815" y="351" type="qcurve" smooth="yes"/>
      <point x="805" y="320"/>
      <point x="763" y="242" type="qcurve" smooth="yes"/>
      <point x="708" y="143"/>
      <point x="545" y="0"/>
      <point x="486" y="0" type="qcurve" smooth="yes"/>
      <point x="436" y="0"/>
      <point x="333" y="99"/>
      <point x="333" y="148" type="qcurve" smooth="yes"/>
      <point x="333" y="194"/>
      <point x="262" y="135" type="qcurve" smooth="yes"/>
      <point x="252" y="126"/>
      <point x="240" y="116" type="qcurve" smooth="yes"/>
      <point x="232" y="108"/>
      <point x="216" y="95" type="qcurve" smooth="yes"/>
      <point x="117" y="7"/>
      <point x="103" y="1" type="qcurve" smooth="yes"/>
      <point x="93" y="-3"/>
      <point x="83" y="8" type="qcurve" smooth="yes"/>
      <point x="81" y="10" type="line" smooth="yes"/>
      <point x="70" y="21"/>
      <point x="71" y="60"/>
      <point x="83" y="67" type="qcurve" smooth="yes"/>
      <point x="111" y="83"/>
      <point x="280" y="259"/>
      <point x="295" y="289" type="qcurve" smooth="yes"/>
      <point x="314" y="325"/>
      <point x="321" y="456"/>
      <point x="307" y="510" type="qcurve" smooth="yes"/>
      <point x="291" y="570"/>
      <point x="269" y="570" type="qcurve" smooth="yes"/>
      <point x="244" y="570"/>
      <point x="185" y="484" type="qcurve" smooth="yes"/>
      <point x="177" y="472"/>
      <point x="167" y="457" type="qcurve" smooth="yes"/>
      <point x="117" y="382"/>
      <point x="63" y="325"/>
      <point x="49" y="330" type="qcurve" smooth="yes"/>
      <point x="9" y="344"/>
      <point x="92" y="470" type="qcurve" smooth="yes"/>
      <point x="207" y="645"/>
      <point x="393" y="680"/>
      <point x="451" y="539" type="qcurve" smooth="yes"/>
      <point x="471" y="489"/>
      <point x="504" y="482"/>
      <point x="533" y="521" type="qcurve" smooth="yes"/>
      <point x="555" y="552"/>
      <point x="594" y="597"/>
    </contour>
  </outline>
</glyph>
<glyph name="y" format="2">
  <advance width="1098"/>
  <unicode hex="0079"/>
  <outline>
    <contour>
      <point x="473" y="-171" type="qcurve" smooth="yes"/>
      <point x="460" y="-149"/>
      <point x="326" y="-244"/>
      <point x="177" y="-405"/>
      <point x="144" y="-469" type="qcurve" smooth="yes"/>
      <point x="85" y="-582"/>
      <point x="111" y="-667" type="qcurve" smooth="yes"/>
      <point x="129" y="-725"/>
      <point x="176" y="-731" type="qcurve" smooth="yes"/>
      <point x="238" y="-739"/>
      <point x="302" y="-648" type="qcurve" smooth="yes"/>
      <point x="356" y="-569"/>
      <point x="490" y="-199"/>
    </contour>
    <contour>
      <point x="384" y="636" type="qcurve" smooth="yes"/>
      <point x="404" y="644"/>
      <point x="417" y="644"/>
      <point x="445" y="637" type="qcurve" smooth="yes"/>
      <point x="468" y="630"/>
      <point x="490" y="609"/>
      <point x="492" y="560"/>
      <point x="475" y="489"/>
      <point x="455" y="428" type="qcurve" smooth="yes"/>
      <point x="356" y="131"/>
      <point x="418" y="106" type="qcurve" smooth="yes"/>
      <point x="440" y="97"/>
      <point x="482" y="117" type="qcurve" smooth="yes"/>
      <point x="530" y="140"/>
      <point x="624" y="298"/>
      <point x="658" y="410" type="qcurve" smooth="yes"/>
      <point x="675" y="465"/>
      <point x="693" y="523"/>
      <point x="716" y="578"/>
      <point x="730" y="599"/>
      <point x="757" y="617"/>
      <point x="780" y="620"/>
      <point x="802" y="621" type="qcurve" smooth="yes"/>
      <point x="859" y="623"/>
      <point x="869" y="614" type="qcurve" smooth="yes"/>
      <point x="886" y="601"/>
      <point x="868" y="532" type="qcurve" smooth="yes"/>
      <point x="861" y="505"/>
      <point x="836" y="419" type="qcurve" smooth="yes"/>
      <point x="804" y="307"/>
      <point x="774" y="205" type="qcurve" smooth="yes"/>
      <point x="743" y="93"/>
      <point x="779" y="97" type="qcurve" smooth="yes"/>
      <point x="809" y="100"/>
      <point x="877" y="191" type="qcurve" smooth="yes"/>
      <point x="878" y="192"/>
      <point x="899" y="218"/>
      <point x="927" y="254"/>
      <point x="932" y="262" type="qcurve" smooth="yes"/>
      <point x="941" y="276"/>
      <point x="968" y="309"/>
      <point x="988" y="339" type="qcurve" smooth="yes"/>
      <point x="1023" y="390"/>
      <point x="1048" y="389" type="qcurve" smooth="yes"/>
      <point x="1063" y="388"/>
      <point x="1063" y="365" type="qcurve" smooth="yes"/>
      <point x="1063" y="306"/>
      <point x="861" y="56"/>
      <point x="774" y="9" type="qcurve" smooth="yes"/>
      <point x="732" y="-14"/>
      <point x="712" y="-44"/>
      <point x="690" y="-113" type="qcurve" smooth="yes"/>
      <point x="600" y="-398"/>
      <point x="520" y="-599"/>
      <point x="467" y="-669" type="qcurve" smooth="yes"/>
      <point x="406" y="-748"/>
      <point x="293" y="-810"/>
      <point x="208" y="-810" type="qcurve" smooth="yes"/>
      <point x="125" y="-810"/>
      <point x="33" y="-704"/>
      <point x="36" y="-526"/>
      <point x="87" y="-424" type="qcurve" smooth="yes"/>
      <point x="124" y="-352"/>
      <point x="239" y="-228"/>
      <point x="352" y="-146"/>
      <point x="457" y="-78"/>
      <point x="531" y="-14"/>
      <point x="540" y="14" type="qcurve" smooth="yes"/>
      <point x="553" y="51"/>
      <point x="537" y="52" type="qcurve" smooth="yes"/>
      <point x="523" y="52"/>
      <point x="474" y="29" type="qcurve" smooth="yes"/>
      <point x="413" y="1"/>
      <point x="342" y="4"/>
      <point x="307" y="37" type="qcurve" smooth="yes"/>
      <point x="247" y="96"/>
      <point x="230" y="226"/>
      <point x="264" y="362" type="qcurve" smooth="yes"/>
      <point x="306" y="525"/>
      <point x="349" y="622"/>
    </contour>
  </outline>
</glyph>
<glyph name="Euro" format="2">
  <advance width="941"/>
  <unicode hex="20AC"/>
  <outline>
    <contour>
      <point x="658" y="1268" type="qcurve" smooth="yes"/>
      <point x="720" y="1284"/>
      <point x="865" y="1232"/>
      <point x="888" y="1186" type="qcurve" smooth="yes"/>
      <point x="914" y="1136"/>
      <point x="894" y="964"/>
      <point x="858" y="928" type="qcurve" smooth="yes"/>
      <point x="844" y="915"/>
      <point x="815" y="921"/>
      <point x="817" y="937" type="qcurve" smooth="yes"/>
      <point x="830" y="1040"/>
      <point x="823" y="1158"/>
      <point x="787" y="1203"/>
      <point x="747" y="1203" type="qcurve" smooth="yes"/>
      <point x="672" y="1203"/>
      <point x="535" y="1065"/>
      <point x="464" y="917" type="qcurve" smooth="yes"/>
      <point x="419" y="823"/>
      <point x="424" y="762"/>
      <point x="479" y="758" type="qcurve" smooth="yes"/>
      <point x="522" y="755"/>
      <point x="537" y="746"/>
      <point x="539" y="722" type="qcurve" smooth="yes"/>
      <point x="541" y="693"/>
      <point x="509" y="670"/>
      <point x="472" y="676" type="qcurve" smooth="yes"/>
      <point x="439" y="681"/>
      <point x="400" y="662"/>
      <point x="402" y="642" type="qcurve" smooth="yes"/>
      <point x="404" y="628"/>
      <point x="440" y="617"/>
      <point x="479" y="617"/>
      <point x="507" y="597"/>
      <point x="504" y="574" type="qcurve" smooth="yes"/>
      <point x="502" y="560"/>
      <point x="482" y="551"/>
      <point x="444" y="548" type="qcurve" smooth="yes"/>
      <point x="383" y="543"/>
      <point x="350" y="518"/>
      <point x="340" y="469" type="qcurve" smooth="yes"/>
      <point x="300" y="283"/>
      <point x="355" y="151" type="qcurve" smooth="yes"/>
      <point x="396" y="53"/>
      <point x="471" y="39" type="qcurve" smooth="yes"/>
      <point x="534" y="27"/>
      <point x="602" y="83" type="qcurve" smooth="yes"/>
      <point x="641" y="115"/>
      <point x="672" y="95"/>
      <point x="650" y="52" type="qcurve" smooth="yes"/>
      <point x="642" y="36"/>
      <point x="581" y="-5"/>
      <point x="484" y="-29"/>
      <point x="379" y="-18"/>
      <point x="264" y="72"/>
      <point x="221" y="156" type="qcurve" smooth="yes"/>
      <point x="187" y="224"/>
      <point x="170" y="301"/>
      <point x="166" y="410" type="qcurve" smooth="yes"/>
      <point x="162" y="511"/>
      <point x="148" y="545"/>
      <point x="111" y="546" type="qcurve" smooth="yes"/>
      <point x="62" y="548"/>
      <point x="33" y="559"/>
      <point x="35" y="577" type="qcurve" smooth="yes"/>
      <point x="36" y="590"/>
      <point x="52" y="599"/>
      <point x="76" y="602" type="qcurve" smooth="yes"/>
      <point x="109" y="606"/>
      <point x="161" y="642"/>
      <point x="163" y="662" type="qcurve" smooth="yes"/>
      <point x="166" y="683"/>
      <point x="133" y="690"/>
      <point x="88" y="677"/>
      <point x="45" y="678"/>
      <point x="39" y="695" type="qcurve" smooth="yes"/>
      <point x="27" y="725"/>
      <point x="81" y="757"/>
      <point x="149" y="760" type="qcurve" smooth="yes"/>
      <point x="198" y="762"/>
      <point x="241" y="790"/>
      <point x="249" y="823" type="qcurve" smooth="yes"/>
      <point x="261" y="878"/>
      <point x="378" y="1086"/>
      <point x="429" y="1143" type="qcurve" smooth="yes"/>
      <point x="465" y="1183"/>
      <point x="588" y="1250"/>
    </contour>
  </outline>
</glyph>
